<svg width="894" height="315" viewBox="0 0 894 315" fill="none" xmlns="http://www.w3.org/2000/svg">
<path d="M48.4057 205.522L0 157.175L157.189 0.174561H254" fill="#333333"/>
<path d="M254 145.044H157.189L120.928 181.262L169.333 229.609" fill="#FFE936"/>
<path d="M120.928 277.957L157.189 314.175H254L169.333 229.609" fill="#FF0F21"/>
<path d="M120.965 181.365L72.6287 229.643L120.965 277.921L169.3 229.643L120.965 181.365Z" fill="#FFE936"/>
<path d="M169.3 229.643L120.965 277.921L127.712 284.66L176.048 236.382L169.3 229.643Z" fill="url(#paint0_linear_26_2103)"/>
<path d="M120.928 277.957L192.755 253.177L169.333 229.609" fill="url(#paint1_linear_26_2103)"/>
<path d="M318 22.1873H405.424V39.3214H335.744V91.0744H398.671V107.965H335.744V173.513H318V22.1873Z" fill="black"/>
<path d="M441.857 22.1873H423.899V173.407H441.857V22.1873Z" fill="black"/>
<path d="M472.39 165.388C465.561 157.786 462.146 147.152 462.146 133.483V65.7086H480.088V130.754C480.088 141.049 482.416 148.585 487.07 153.361C491.724 158.137 497.985 160.53 505.851 160.541C511.602 160.634 517.244 158.939 521.994 155.693C526.687 152.486 530.47 148.116 532.97 143.01C535.564 137.907 536.907 132.257 536.887 126.532V65.7086H554.845V173.422H537.726V157.858H536.887C533.526 163.602 528.619 168.286 522.726 171.379C516.427 174.992 509.287 176.884 502.024 176.867C489.117 176.817 479.239 172.991 472.39 165.388Z" fill="black"/>
<path d="M607.482 174.626C603.989 173.347 600.79 171.376 598.076 168.834C595.305 166.175 593.146 162.945 591.75 159.367C590.232 155.163 589.512 150.712 589.631 146.242V81.9738H570.835V65.7086H589.631V35.297H607.573V65.7086H633.762V81.9738H607.573V141.989C607.573 148.087 608.701 152.492 610.957 155.373C613.63 158.544 617.501 160.129 622.573 160.129C626.779 160.091 630.887 158.843 634.402 156.532V174.062C632.344 175.023 630.18 175.734 627.954 176.181C625.2 176.641 622.408 176.852 619.616 176.806C615.471 176.831 611.358 176.091 607.482 174.626Z" fill="black"/>
<path d="M681.689 174.626C678.203 173.344 675.009 171.373 672.299 168.834C669.523 166.175 667.36 162.945 665.957 159.367C664.444 155.161 663.73 150.71 663.854 146.242V81.9738H645.058V65.7086H663.854V35.297H681.796V65.7086H707.985V81.9738H681.796V141.989C681.796 148.087 682.924 152.492 685.165 155.373C687.847 158.544 691.724 160.129 696.796 160.129C700.997 160.093 705.101 158.844 708.61 156.532V174.062C706.558 175.024 704.398 175.736 702.177 176.181C699.418 176.641 696.62 176.85 693.823 176.806C689.68 176.824 685.567 176.085 681.689 174.626Z" fill="black"/>
<path d="M742.405 169.398C734.279 164.498 727.668 157.443 723.305 149.017C718.633 139.978 716.271 129.922 716.43 119.748C716.328 109.808 718.53 99.9769 722.863 91.0287C726.959 82.5379 733.282 75.3138 741.155 70.1293C749.319 64.8519 758.876 62.1339 768.594 62.3245C778.218 62.0836 787.721 64.5272 796.034 69.3824C803.744 74.0485 809.948 80.8397 813.899 88.9403C818.181 97.8275 820.317 107.597 820.134 117.462C820.165 119.311 819.95 121.157 819.494 122.949H734.387C734.556 130.244 736.598 137.373 740.317 143.651C743.541 149.018 748.177 153.401 753.716 156.318C758.951 159.094 764.788 160.545 770.713 160.541C784.514 160.541 795.145 154.067 802.604 141.12L817.848 148.513C813.474 156.957 806.954 164.103 798.945 169.23C790.988 174.311 781.38 176.852 770.119 176.852C760.37 176.98 750.774 174.399 742.405 169.398ZM801.11 108.148C800.765 103.43 799.468 98.8305 797.299 94.6263C794.854 89.9205 791.162 85.9754 786.628 83.2238C781.105 79.9479 774.753 78.3336 768.335 78.5745C760.404 78.3778 752.704 81.3031 746.902 86.7147C740.884 92.4525 736.852 99.9616 735.393 108.148H801.11Z" fill="black"/>
<path d="M831.75 65.7086H848.869V83.0256H849.707C851.997 76.8686 856.294 71.6582 861.902 68.239C867.512 64.425 874.13 62.361 880.912 62.3092C885.25 62.2055 889.562 62.9997 893.579 64.6415V83.864C888.832 81.5622 883.61 80.4067 878.335 80.4951C873.209 80.4723 868.197 82.021 863.976 84.9311C859.581 87.9906 856.018 92.0988 853.61 96.8823C851.008 101.885 849.668 107.448 849.707 113.087V173.422H831.765V65.7086H831.75Z" fill="black"/>
<rect width="290.858" height="99.2945" transform="translate(318 192.867)" fill="#333333"/>
<path d="M366 257.405V219.409H375.858C379.658 219.409 382.568 220.128 384.587 221.565C386.624 223.003 387.642 225.074 387.642 227.778C387.642 232.382 385.041 235.66 379.838 237.611C386.051 239.511 389.157 242.942 389.157 247.906C389.157 250.987 388.13 253.34 386.076 254.966C384.022 256.592 381.061 257.405 377.193 257.405H366ZM371.34 253.374H372.444C376.398 253.374 378.956 253.126 380.12 252.63C382.345 251.688 383.458 249.942 383.458 247.392C383.458 245.133 382.448 243.259 380.428 241.77C378.409 240.264 375.884 239.511 372.855 239.511H371.34V253.374ZM371.34 236.096H373.06C375.935 236.096 378.16 235.48 379.735 234.248C381.327 233.015 382.123 231.278 382.123 229.036C382.123 225.305 379.23 223.439 373.445 223.439H371.34V236.096Z" fill="white"/>
<path d="M416.832 256.506C413.444 257.533 410.543 258.047 408.129 258.047C404.022 258.047 400.667 256.686 398.066 253.965C395.481 251.226 394.189 247.683 394.189 243.336C394.189 239.109 395.327 235.643 397.603 232.938C399.897 230.234 402.824 228.882 406.384 228.882C409.755 228.882 412.357 230.08 414.188 232.476C416.037 234.872 416.961 238.278 416.961 242.694L416.935 244.26H399.349C400.085 250.884 403.328 254.196 409.079 254.196C411.184 254.196 413.769 253.631 416.832 252.501V256.506ZM399.58 240.461H411.878C411.878 235.275 409.944 232.682 406.075 232.682C402.19 232.682 400.025 235.275 399.58 240.461Z" fill="white"/>
<path d="M425.715 257.405V216.867H430.773V257.405H425.715Z" fill="white"/>
<path d="M441.016 266.673L441.607 262.283C444.534 263.669 447.417 264.362 450.259 264.362C455.958 264.362 458.808 261.341 458.808 255.3V250.91C456.942 254.812 453.878 256.763 449.617 256.763C446.279 256.763 443.626 255.548 441.658 253.117C439.69 250.687 438.706 247.409 438.706 243.285C438.706 239.04 439.827 235.583 442.069 232.913C444.311 230.243 447.212 228.908 450.772 228.908C453.887 228.908 456.566 230.174 458.808 232.707V229.524H463.891V249.806C463.891 254.17 463.66 257.396 463.198 259.484C462.753 261.589 461.906 263.31 460.656 264.645C458.448 266.989 455.017 268.162 450.361 268.162C447.109 268.162 443.994 267.665 441.016 266.673ZM458.808 247.752V236.173C456.583 233.863 454.161 232.707 451.542 232.707C449.215 232.707 447.392 233.64 446.074 235.506C444.756 237.371 444.097 239.93 444.097 243.182C444.097 249.292 446.245 252.347 450.541 252.347C453.468 252.347 456.223 250.815 458.808 247.752Z" fill="white"/>
<path d="M473.724 257.405V229.524H478.781V257.405H473.724ZM473.724 224.466V219.409H478.781V224.466H473.724Z" fill="white"/>
<path d="M506.354 257.405V252.167C503.667 256.087 500.406 258.047 496.573 258.047C494.142 258.047 492.208 257.285 490.77 255.762C489.333 254.221 488.614 252.15 488.614 249.549V229.524H493.672V247.906C493.672 249.994 493.971 251.483 494.57 252.373C495.186 253.246 496.205 253.682 497.625 253.682C500.706 253.682 503.616 251.654 506.354 247.598V229.524H511.412V257.405H506.354Z" fill="white"/>
<path d="M521.578 257.405V229.524H526.636V234.761C529.1 230.859 532.267 228.908 536.135 228.908C539.866 228.908 542.407 230.859 543.759 234.761C546.156 230.842 549.271 228.882 553.104 228.882C555.569 228.882 557.477 229.61 558.829 231.064C560.182 232.502 560.858 234.522 560.858 237.123V257.405H555.774V237.919C555.774 234.736 554.516 233.144 552 233.144C549.382 233.144 546.635 235.001 543.759 238.715V257.405H538.676V237.919C538.676 234.718 537.393 233.118 534.825 233.118C532.275 233.118 529.545 234.984 526.636 238.715V257.405H521.578Z" fill="white"/>
<defs>
<linearGradient id="paint0_linear_26_2103" x1="120.965" y1="277.921" x2="127.704" y2="284.668" gradientUnits="userSpaceOnUse">
<stop stop-opacity="0.15"/>
<stop offset="0.2" stop-opacity="0.15"/>
<stop offset="0.85" stop-color="#616161" stop-opacity="0.01"/>
<stop offset="1" stop-color="#616161" stop-opacity="0.01"/>
</linearGradient>
<linearGradient id="paint1_linear_26_2103" x1="120.928" y1="229.609" x2="192.755" y2="229.609" gradientUnits="userSpaceOnUse">
<stop stop-opacity="0.55"/>
<stop offset="0.2" stop-opacity="0.55"/>
<stop offset="0.85" stop-color="#616161" stop-opacity="0.01"/>
<stop offset="1" stop-color="#616161" stop-opacity="0.01"/>
</linearGradient>
</defs>
</svg>
