<svg width="283" height="134" viewBox="0 0 283 134" fill="none" xmlns="http://www.w3.org/2000/svg">
<path d="M24.92 105.456C24.167 106.218 23.2582 106.73 22.1937 106.991C21.1293 107.251 20.0679 107.3 19.0095 107.137C17.9121 106.985 16.957 106.667 16.1441 106.181C15.7822 105.947 15.5183 105.389 15.3522 104.509C15.1582 103.678 15.0671 102.987 15.0789 102.436C15.0742 101.678 15.2279 101.255 15.54 101.166C15.9692 101.044 16.5623 101.276 17.3193 101.862C18.6891 102.526 19.8396 102.494 20.7709 101.766C21.7412 101.026 22.5648 99.5475 23.2416 97.3308C23.3092 96.6791 23.4413 95.7348 23.6378 94.4982C23.8342 93.2616 24.028 91.9414 24.2192 90.5376C24.4493 89.1227 24.6486 87.822 24.8172 86.6355C24.9746 85.41 25.0648 84.5409 25.0877 84.0284C25.0877 84.0284 25.0711 83.9699 25.0378 83.8528C25.0324 83.6857 25.0856 83.5019 25.1972 83.3014C25.1919 83.1343 25.2006 82.7944 25.2235 82.2819C25.2464 81.7693 25.2471 81.1788 25.2256 80.5102C25.2596 80.0366 25.2911 79.3319 25.3201 78.3959C25.3881 77.4488 25.445 76.4627 25.4908 75.4376C25.5756 74.4015 25.6463 73.538 25.7028 72.8472C25.6649 71.9724 25.6493 71.028 25.6561 70.014C25.6908 68.9499 25.7335 68.1365 25.7843 67.5739C25.8516 67.2174 25.9082 66.5266 25.954 65.5015C25.9887 64.4374 26.0402 63.2841 26.1085 62.0418C26.1439 60.3871 26.1763 58.9441 26.2056 57.7129C26.274 56.4705 26.2919 55.4955 26.2593 54.7879C26.2546 54.0302 26.1966 53.6039 26.0853 53.5091C26.0853 53.5091 25.7508 53.6674 25.0819 53.9842C24.4519 54.2899 23.7495 54.6373 22.9746 55.0263C22.3891 55.4881 21.7562 55.8578 21.0762 56.1356C20.4352 56.4022 20.101 56.2653 20.0738 55.7249C20.0294 55.5688 19.9906 55.4323 19.9573 55.3152C19.9129 55.1592 19.8907 55.0812 19.8907 55.0812C19.7959 55.1925 19.6176 55.1588 19.356 54.9802C19.0943 54.8016 18.8356 54.559 18.5796 54.2522C18.3126 53.9065 18.1514 53.6361 18.0959 53.441C18.0071 53.1289 18.3559 52.6502 19.1423 52.0048C19.9565 51.3094 20.9462 50.7116 22.1112 50.2116C22.8582 49.8726 23.7668 49.5088 24.837 49.12C25.9351 48.6812 26.7266 48.3506 27.2116 48.1284C27.3344 47.9669 27.6966 47.9061 28.2983 47.9458C28.8999 47.9855 29.5322 48.0587 30.1951 48.1654C30.858 48.272 31.3202 48.4146 31.5819 48.5932C31.9047 48.8388 32.1356 49.1315 32.2745 49.4716C32.4524 49.8005 32.552 50.2993 32.5735 50.9679C32.595 51.6365 32.5576 52.617 32.4614 53.9095C32.393 55.1518 32.2712 56.8733 32.0958 59.0738C31.9255 61.7367 31.7917 64.1574 31.6944 66.3357C31.5859 68.475 31.4417 70.2661 31.2617 71.7089C31.2667 72.1713 31.2297 72.8566 31.1506 73.7646C31.1105 74.6616 31.076 75.578 31.047 76.514C31.007 77.411 30.9866 78.1547 30.9859 78.7453C30.8846 79.5753 30.8195 80.4583 30.7905 81.3943C30.7615 82.3303 30.7411 83.0741 30.7293 83.6256C30.8181 83.9377 30.8399 84.311 30.7948 84.7456C30.7497 85.1801 30.6574 85.5226 30.5178 85.7732C30.5178 85.7732 30.4811 86.1631 30.4078 86.943C30.3233 87.6839 30.2192 88.578 30.0954 89.6253C30.0052 90.4944 29.8982 91.4525 29.7743 92.4998C29.7006 93.575 29.5798 94.4106 29.412 95.0066C29.3501 95.5302 29.2381 96.0259 29.0759 96.4937C28.9249 97.0006 28.8716 97.332 28.9159 97.488C28.9159 97.488 28.9131 97.5521 28.9074 97.6803C28.9406 97.7973 28.8793 97.878 28.7232 97.9224C28.7232 97.9224 28.6758 97.978 28.5809 98.0894C28.4972 98.2397 28.4831 98.4124 28.5385 98.6075C28.5271 98.8637 28.3789 99.3065 28.094 99.9357C27.8091 100.565 27.4768 101.25 27.097 101.99C26.7284 102.77 26.3376 103.472 25.9245 104.095C25.5115 104.719 25.1767 105.172 24.92 105.456ZM43.7432 86.7557C43.236 86.8999 42.7986 86.9189 42.431 86.8126C42.1024 86.6952 41.6736 86.522 41.1446 86.2929C40.1814 85.7235 39.3382 85.0567 38.6148 84.2925C37.9304 83.5173 37.5524 82.7814 37.4808 82.0849C37.5091 81.7395 37.4649 81.4358 37.3482 81.1738C37.2594 80.8617 37.2151 80.7056 37.2151 80.7056C36.9645 80.566 36.8727 80.4656 36.9396 80.4044C36.9955 80.3042 37.0402 80.165 37.0739 79.9867C37.3079 79.9201 37.3249 79.6834 37.1248 79.2764C36.958 78.9865 36.8865 78.29 36.9101 77.1869C36.9616 76.0336 37.1468 74.9056 37.4657 73.8029C37.5888 73.3461 37.7957 72.7391 38.0863 71.9817C38.3658 71.1853 38.6899 70.3974 39.0586 69.6178C39.4551 68.7881 39.832 68.1116 40.1892 67.5884C40.9315 66.4917 41.6402 65.5732 42.3152 64.833C43.0293 64.0817 43.7877 63.4865 44.5905 63.0473C45.3933 62.6081 46.2434 62.2609 47.1407 62.0057C48.077 61.7394 48.9266 61.8351 49.6893 62.2929C50.6976 62.4278 51.4716 62.777 52.0114 63.3403C52.5901 63.8926 53.0878 64.6788 53.5045 65.6988C53.9544 66.836 54.2479 68.3127 54.3851 70.1292C54.5111 71.9067 54.1101 74.1292 53.182 76.7968C52.6061 78.4787 51.961 79.8429 51.2466 80.8895C50.5322 81.9361 49.7036 82.9519 48.7609 83.9369C48.0969 84.7161 47.3134 85.2974 46.4104 85.6808C45.5074 86.0641 44.6183 86.4224 43.7432 86.7557ZM47.6816 77.9185C48.3291 76.9331 48.7008 75.9418 48.7967 74.9446C48.9316 73.9364 49.0416 72.7665 49.1268 71.435C49.2163 71.1565 49.2029 70.7387 49.0865 70.1814C49.0092 69.613 48.8789 69.0808 48.6956 68.5847C48.5013 68.0496 48.276 67.7763 48.0197 67.7649C47.5909 67.5916 47.2231 67.633 46.9164 67.8889C46.5986 68.1058 46.222 68.487 45.7868 69.0325C44.8938 70.3407 44.1232 71.7828 43.475 73.3588C42.8548 74.8846 42.6103 76.6198 42.7417 78.5644C42.9021 79.573 43.2105 80.2866 43.6668 80.705C44.1511 81.0733 44.7361 81.0545 45.4219 80.6486C46.1356 80.1926 46.8888 79.2825 47.6816 77.9185ZM65.2208 81.0265C64.2845 81.2928 63.3265 81.0382 62.3468 80.2626C61.3951 79.4368 60.6415 78.3439 60.0859 76.9838C60.0362 76.6606 59.9476 76.2009 59.8202 75.6046C59.7317 74.9972 59.6378 74.3703 59.5383 73.7239C59.4835 72.9382 59.4262 71.9214 59.3664 70.6733C59.3066 69.4252 59.2663 68.1716 59.2455 66.9124C59.2137 65.6142 59.1927 64.5027 59.1827 63.5778C59.1615 62.6139 59.1483 62.0484 59.1429 61.8812C59.2216 61.2685 59.7095 60.9821 60.6065 61.0222C61.5034 61.0623 62.3721 61.4477 63.2125 62.1786C63.5354 62.4241 63.7773 62.7559 63.9384 63.174C64.1385 63.5809 64.2575 64.2218 64.2955 65.0966C64.3724 65.9602 64.4043 67.2584 64.3911 68.9911C64.4058 70.6737 64.4348 72.036 64.4781 73.0779C64.5494 74.0697 64.7543 75.0868 65.0929 76.129C65.4473 77.968 65.6408 79.2414 65.6734 79.949C65.6948 80.6176 65.544 80.9767 65.2208 81.0265ZM63.6972 55.2093C63.5744 55.3707 63.435 55.4736 63.279 55.518C63.1508 55.5123 62.903 55.4563 62.5354 55.35C62.2512 55.3886 61.8501 55.3129 61.3322 55.1229C60.8422 54.8827 60.3912 54.6315 59.9793 54.3691C59.6063 54.0957 59.4087 53.9199 59.3865 53.8419C59.2366 53.4629 59.0785 52.8331 58.9124 51.9526C58.7854 51.061 58.7725 50.2002 58.8737 49.3702C59.0029 48.49 59.3546 47.9473 59.9287 47.7418C60.0847 47.6974 60.4385 47.6811 60.9901 47.6929C61.5807 47.6936 62.2019 47.7278 62.8536 47.7954C63.3322 48.2919 63.8412 48.9694 64.3806 49.8281C64.92 50.6867 65.2003 51.598 65.2214 52.5619C65.2704 53.4756 64.7624 54.3581 63.6972 55.2093ZM92.2424 71.8861C91.3619 72.0522 90.5902 72.0819 89.9273 71.9753C89.2924 71.8185 88.6717 71.3414 88.0654 70.544C87.7318 69.9642 87.4707 69.3426 87.282 68.6794C87.1213 67.9661 86.9912 67.2862 86.8917 66.6398C86.7811 65.9543 86.6592 65.3776 86.526 64.9094C86.5039 64.8314 86.4595 64.6753 86.3929 64.4412C86.3263 64.2071 86.2653 63.9926 86.2098 63.7975C85.9653 63.2345 85.7094 62.9278 85.442 62.8773C85.2026 62.7767 84.857 62.8961 84.4053 63.2354C83.697 63.8586 82.9495 64.6405 82.1628 65.5811C81.404 66.4716 80.62 67.4958 79.8107 68.6537C79.0294 69.7615 78.2257 70.9389 77.3996 72.186C76.8076 73.3664 76.3803 74.3103 76.1176 75.0175C75.8939 75.7137 75.5675 76.1228 75.1383 76.2449C74.8706 76.4897 74.5279 76.545 74.1102 76.4108C73.6925 76.2766 73.2442 76.1089 72.7653 75.9077C72.4034 75.6733 71.9609 75.3775 71.4376 75.0203C70.9422 74.613 70.6333 74.3424 70.5109 74.2085C70.3333 73.5843 70.2115 73.0075 70.1452 72.4781C70.118 71.9377 70.1243 71.3666 70.164 70.7649C70.2427 70.1522 70.3383 69.4503 70.4507 68.6593C70.529 68.3418 70.5879 68.0299 70.6273 67.7235C70.6946 67.367 70.7758 66.9854 70.871 66.5788C70.8717 65.9883 70.9087 65.303 70.9821 64.5231C71.0945 63.7321 71.1985 62.9856 71.294 62.2837C71.4347 61.1473 71.5166 60.1752 71.5399 59.3674C71.5631 58.5595 71.5307 57.7043 71.4426 56.8016C71.3814 56.7347 71.3676 56.6121 71.4013 56.4338C71.4349 56.2556 71.5242 56.1247 71.6692 56.0413L71.7277 56.0247L71.7862 56.0081C72.0038 55.7353 72.5055 55.5716 73.2911 55.5168C74.1047 55.4119 74.7509 55.46 75.2298 55.6612C76.2488 56.1304 76.8997 56.9363 77.1825 58.0787C77.4653 59.2212 77.3017 60.8702 76.6919 63.0256C76.5963 63.7275 76.4702 64.3959 76.3134 65.0309C76.1846 65.6157 76.1479 66.0057 76.2034 66.2008C76.2034 66.2008 76.3261 66.0393 76.5717 65.7165C76.8172 65.3936 77.1101 65.0151 77.4505 64.581C77.7798 64.1078 78.0728 63.7293 78.3294 63.4454C78.469 63.1949 78.7982 62.7217 79.3172 62.0259C79.8251 61.2911 80.386 60.5201 80.9998 59.713C81.6136 58.9058 82.1102 58.2796 82.4896 57.8344C82.83 57.4002 83.2874 56.9327 83.8619 56.432C84.4252 55.8922 84.785 55.6002 84.941 55.5558C85.3311 55.4448 85.8381 55.4482 86.462 55.566C87.1249 55.6726 87.7459 55.8544 88.325 56.1114C88.9321 56.3183 89.319 56.5667 89.4858 56.8566C89.5302 57.0126 89.5717 57.2328 89.6103 57.517C89.6379 57.7621 89.6794 57.9823 89.7349 58.1773C89.8734 58.8126 90.0703 59.5789 90.3255 60.4763C90.6087 61.3235 90.8778 62.1957 91.133 63.093C91.3772 63.9513 91.5211 64.7538 91.5647 65.5004C91.5647 65.5004 91.5953 65.5339 91.6565 65.6008C91.7067 65.6287 91.7679 65.6957 91.8402 65.8016C91.8122 65.8517 91.8149 65.9353 91.8482 66.0523C91.9094 66.1193 91.94 66.1527 91.94 66.1527C92.0957 66.4036 92.2514 66.6545 92.4071 66.9054C92.6018 67.1452 92.8272 67.4185 93.0831 67.7253C93.3279 67.993 93.62 68.3527 93.9593 68.8044C94.0645 69.3227 93.9162 69.9131 93.5143 70.5756C93.1402 71.188 92.7163 71.6248 92.2424 71.8861ZM117.116 64.1157C116.186 63.6633 115.348 63.1637 114.602 62.6168C113.845 62.0309 113.153 61.0049 112.525 59.5389C112.247 58.8588 112.048 57.8613 111.927 56.5463C111.806 55.2312 111.785 53.8244 111.865 52.3258C111.934 50.7882 112.075 49.3565 112.288 48.0307C112.501 46.7049 112.803 45.6913 113.194 44.9898C113.496 44.2714 113.948 43.6368 114.55 43.0859C115.192 42.524 115.953 42.3076 116.833 42.4368C117.406 42.8219 117.82 43.4631 118.076 44.3605C118.359 45.2077 118.372 46.0685 118.114 46.9429C117.634 48.2182 117.328 49.7388 117.198 51.5048C117.096 53.2207 117.124 54.7306 117.285 56.0345C117.267 57.0095 117.349 57.745 117.533 58.2411C117.705 58.6982 118.061 58.9131 118.602 58.8859C119.398 58.8701 120.098 58.4392 120.701 57.593C121.342 56.7358 121.862 55.5971 122.259 54.1768C122.696 52.7455 122.984 51.1663 123.126 49.4393C123.204 48.8265 123.197 48.1329 123.103 47.3583C123.048 46.5727 123.049 45.9821 123.105 45.5866C123.078 44.7509 123.238 44.0518 123.584 43.4895C123.958 42.8771 124.402 42.4347 124.915 42.1623C125.427 41.8899 125.854 41.8319 126.193 41.9884C126.589 42.0445 127.032 42.1927 127.522 42.4329C128.012 42.673 128.345 43.2529 128.522 44.1724C128.933 45.6159 128.97 46.9336 128.635 48.1255C128.299 49.3174 128.077 50.54 127.97 51.7935C127.852 52.7126 127.558 53.8294 127.089 55.1437C126.619 56.458 126.063 57.6914 125.421 58.8439C124.818 59.9853 124.19 60.8175 123.538 61.3405C122.645 62.3534 121.655 63.0988 120.568 63.5766C119.47 64.0155 118.319 64.1952 117.116 64.1157ZM140.862 59.9552C139.614 60.3103 138.385 60.3645 137.177 60.1179C135.996 59.8212 134.977 59.352 134.12 58.7103C133.251 58.0295 132.706 57.299 132.484 56.5187C132.384 56.1676 132.371 55.8974 132.443 55.708C132.555 55.5076 132.747 55.3685 133.021 55.2909C133.227 55.2744 133.488 55.3054 133.806 55.3837C134.123 55.4621 134.446 55.56 134.775 55.6774C135.521 55.929 136.282 56.0079 137.056 55.9141C137.831 55.8203 138.483 55.5927 139.013 55.2312C139.531 54.8307 139.763 54.3852 139.708 53.8949C139.664 53.7388 139.491 53.4294 139.191 52.9666C138.891 52.5038 138.557 52.0716 138.19 51.67C136.804 50.5039 135.811 49.3105 135.21 48.0896C134.599 46.8297 134.066 45.5476 133.61 44.2434C133.455 43.6972 133.537 43.0203 133.855 42.2128C134.163 41.3664 134.593 40.5061 135.145 39.632C135.765 38.6967 136.473 37.7783 137.271 36.8767C138.108 35.964 138.953 35.1543 139.806 34.4478C140.66 33.7412 141.407 33.2546 142.048 32.9879C142.75 32.7882 143.502 32.6164 144.305 32.4725C145.135 32.2785 145.72 32.2597 146.06 32.4161C146.728 32.6899 147.435 33.2479 148.181 34.0901C148.926 34.9322 149.393 35.685 149.582 36.3482C149.671 36.6603 149.606 37.1004 149.388 37.6684C149.198 38.1863 149.044 38.7572 148.927 39.3811C148.848 39.6985 148.795 40.03 148.767 40.3754C148.738 40.7208 148.691 41.0717 148.623 41.4282C148.545 42.041 148.182 42.3971 147.536 42.4966C146.917 42.546 146.282 42.3893 145.631 42.0264C144.968 41.6244 144.537 41.0723 144.337 40.3701C144.171 39.7849 144.202 39.2278 144.431 38.6988C144.66 38.1697 144.753 37.8272 144.708 37.6711C144.686 37.5931 144.63 37.5457 144.541 37.5289C144.452 37.5121 144.31 37.5314 144.115 37.5869C143.842 37.6645 143.427 37.9092 142.869 38.3208C142.339 38.6823 141.798 39.1525 141.246 39.7312C140.694 40.31 140.222 40.9502 139.831 41.6517C139.563 42.1918 139.365 42.7543 139.236 43.3391C139.135 43.8739 139.162 44.4144 139.317 44.9605C139.473 45.5067 139.753 46.1227 140.159 46.8085C140.593 47.4442 141.013 47.9572 141.419 48.3477C141.52 48.4036 141.698 48.5848 141.954 48.8916C142.237 49.1482 142.563 49.4773 142.93 49.8789C145.217 52.4334 146.078 54.5711 145.513 56.292C144.988 58.0018 143.437 59.2229 140.862 59.9552Z" fill="black"/>
<path d="M262.185 126.079C262.504 126.529 263.128 126.635 263.579 126.315L270.917 121.105C271.368 120.785 271.474 120.161 271.154 119.711C270.834 119.26 270.21 119.155 269.76 119.474L263.236 124.106L258.605 117.582C258.285 117.132 257.661 117.026 257.211 117.346C256.76 117.666 256.655 118.29 256.974 118.74L262.185 126.079ZM172.983 41C198.899 41.4469 217.365 46.9848 230.501 54.9719C243.63 62.9545 251.496 73.4203 256.161 83.8326C260.831 94.2569 262.297 104.641 262.591 112.431C262.738 116.323 262.592 119.56 262.41 121.819C262.319 122.949 262.219 123.833 262.142 124.432C262.104 124.732 262.071 124.96 262.048 125.112C262.037 125.188 262.028 125.245 262.022 125.282C262.019 125.3 262.017 125.314 262.016 125.322C262.015 125.326 262.015 125.329 262.014 125.331C262.014 125.332 262.014 125.332 262.014 125.333C262.014 125.333 262.014 125.333 263 125.5C263.986 125.667 263.986 125.666 263.986 125.665C263.986 125.664 263.987 125.663 263.987 125.661C263.987 125.658 263.988 125.653 263.989 125.647C263.991 125.635 263.994 125.619 263.997 125.597C264.004 125.553 264.014 125.49 264.026 125.408C264.051 125.242 264.086 125 264.126 124.686C264.206 124.059 264.309 123.143 264.403 121.98C264.59 119.655 264.74 116.338 264.589 112.356C264.289 104.395 262.792 93.741 257.986 83.0149C253.176 72.2769 245.054 61.48 231.54 53.263C218.033 45.0504 199.199 39.4517 173.017 39.0003L172.983 41Z" fill="black"/>
</svg>
