<?xml version="1.0" encoding="utf-8"?>
<!DOCTYPE svg PUBLIC "-//W3C//DTD SVG 1.1//EN" "http://www.w3.org/Graphics/SVG/1.1/DTD/svg11.dtd">
<svg version="1.1" id="Layer_1" xmlns="http://www.w3.org/2000/svg" xmlns:xlink="http://www.w3.org/1999/xlink" x="0px" y="0px"
width="1155px" height="1155px" viewBox="0 0 1155 1155" enable-background="new 0 0 1155 1155" xml:space="preserve">
<rect x="0" y="0" width="1155" height="1155" fill="rgb(255,255,255)" /><g transform="translate(70,70)"><g transform="translate(280,0) scale(0.35,0.35)"><g transform="" style="fill: rgb(0, 0, 0);">
<g>
	<path d="M100,34.375V0H34.375C24.87,0,16.764,3.353,10.059,10.059S0,24.87,0,34.375V100h100V34.375z"/>
</g>
</g></g><g transform="translate(315,0) scale(0.35,0.35)"><g transform="" style="fill: rgb(0, 0, 0);">
<rect width="100" height="100"/>
</g></g><g transform="translate(350,0) scale(0.35,0.35)"><g transform="" style="fill: rgb(0, 0, 0);">
<g>
	<path d="M65.625,0H0v100h65.625c9.505,0,17.611-3.354,24.316-10.059C96.646,83.236,100,75.13,100,65.625v-31.25
		c0-9.505-3.354-17.611-10.059-24.316C83.236,3.354,75.13,0,65.625,0z"/>
</g>
</g></g><g transform="translate(455,0) scale(0.35,0.35)"><g transform="" style="fill: rgb(0, 0, 0);">
<g>
	<path d="M100,34.375V0H34.375C24.87,0,16.764,3.353,10.059,10.059S0,24.87,0,34.375V100h100V34.375z"/>
</g>
</g></g><g transform="translate(490,0) scale(0.35,0.35)"><g transform="" style="fill: rgb(0, 0, 0);">
<rect width="100" height="100"/>
</g></g><g transform="translate(525,0) scale(0.35,0.35)"><g transform="" style="fill: rgb(0, 0, 0);">
<g>
	<path d="M65.625,0H0v100h65.625c9.505,0,17.611-3.354,24.316-10.059C96.646,83.236,100,75.13,100,65.625v-31.25
		c0-9.505-3.354-17.611-10.059-24.316C83.236,3.354,75.13,0,65.625,0z"/>
</g>
</g></g><g transform="translate(595,0) scale(0.35,0.35)"><g transform="" style="fill: rgb(0, 0, 0);">
<g>
	<path d="M100,34.375V0H34.375C24.87,0,16.764,3.353,10.059,10.059S0,24.87,0,34.375v31.25c0,9.505,3.353,17.611,10.059,24.316
		C16.765,96.646,24.87,100,34.375,100H100V34.375z"/>
</g>
</g></g><g transform="translate(630,0) scale(0.35,0.35)"><g transform="" style="fill: rgb(0, 0, 0);">
<rect width="100" height="100"/>
</g></g><g transform="translate(665,0) scale(0.35,0.35)"><g transform="" style="fill: rgb(0, 0, 0);">
<g>
	<path d="M65.625,0H0v100h65.625c9.505,0,17.611-3.354,24.316-10.059C96.646,83.236,100,75.13,100,65.625v-31.25
		c0-9.505-3.354-17.611-10.059-24.316C83.236,3.354,75.13,0,65.625,0z"/>
</g>
</g></g><g transform="translate(280,35) scale(0.35,0.35)"><g transform="" style="fill: rgb(0, 0, 0);">
<g>
	<path d="M99.805,32.031H100V0H0v32.031h0.195C0.065,33.073,0,33.854,0,34.375v31.25c0,9.505,3.353,17.611,10.059,24.316
		C16.765,96.646,24.87,100,34.375,100h31.25c9.505,0,17.611-3.354,24.316-10.059C96.646,83.236,100,75.13,100,65.625v-31.25
		C100,33.854,99.937,33.073,99.805,32.031z"/>
</g>
</g></g><g transform="translate(385,35) scale(0.35,0.35)"><g transform="" style="fill: rgb(0, 0, 0);">
<g>
	<path d="M100,65.625c0,9.507-3.355,17.611-10.059,24.316C83.236,96.645,75.132,100,65.625,100h-31.25
		c-9.504,0-17.61-3.355-24.315-10.059C3.354,83.236,0,75.132,0,65.625v-31.25c0-9.504,3.353-17.61,10.059-24.315
		C16.766,3.354,24.871,0,34.375,0h31.25c9.508,0,17.613,3.353,24.316,10.059C96.646,16.766,100,24.871,100,34.375V65.625z"/>
</g>
</g></g><g transform="translate(455,35) scale(0.35,0.35)"><g transform="" style="fill: rgb(0, 0, 0);">
<g>
	<path d="M99.805,32.031H100V0H0v32.031h0.195C0.065,33.073,0,33.854,0,34.375v31.25c0,9.505,3.353,17.611,10.059,24.316
		C16.765,96.646,24.87,100,34.375,100h31.25c9.505,0,17.611-3.354,24.316-10.059C96.646,83.236,100,75.13,100,65.625v-31.25
		C100,33.854,99.937,33.073,99.805,32.031z"/>
</g>
</g></g><g transform="translate(560,35) scale(0.35,0.35)"><g transform="" style="fill: rgb(0, 0, 0);">
<g>
	<path d="M100,34.375c0-9.505-3.354-17.611-10.059-24.316C83.236,3.354,75.13,0,65.625,0h-31.25C24.87,0,16.764,3.353,10.059,10.059
		S0,24.87,0,34.375v31.25c0,0.521,0.065,1.303,0.195,2.344H0V100h100V67.969h-0.195c0.132-1.041,0.195-1.822,0.195-2.344V34.375z"/>
</g>
</g></g><g transform="translate(630,35) scale(0.35,0.35)"><g transform="" style="fill: rgb(0, 0, 0);">
<g>
	<path d="M99.805,32.031H100V0H0v32.031h0.195C0.065,33.073,0,33.854,0,34.375v31.25c0,9.505,3.353,17.611,10.059,24.316
		C16.765,96.646,24.87,100,34.375,100h31.25c9.505,0,17.611-3.354,24.316-10.059C96.646,83.236,100,75.13,100,65.625v-31.25
		C100,33.854,99.937,33.073,99.805,32.031z"/>
</g>
</g></g><g transform="translate(560,70) scale(0.35,0.35)"><g transform="" style="fill: rgb(0, 0, 0);">
<g>
	<path d="M99.805,32.031H100V0H0v32.031h0.195C0.065,33.073,0,33.854,0,34.375v31.25c0,9.505,3.353,17.611,10.059,24.316
		C16.765,96.646,24.87,100,34.375,100h31.25c9.505,0,17.611-3.354,24.316-10.059C96.646,83.236,100,75.13,100,65.625v-31.25
		C100,33.854,99.937,33.073,99.805,32.031z"/>
</g>
</g></g><g transform="translate(665,70) scale(0.35,0.35)"><g transform="" style="fill: rgb(0, 0, 0);">
<g>
	<path d="M100,34.375V0H34.375C24.87,0,16.764,3.353,10.059,10.059S0,24.87,0,34.375V100h100V34.375z"/>
</g>
</g></g><g transform="translate(700,70) scale(0.35,0.35)"><g transform="" style="fill: rgb(0, 0, 0);">
<g>
	<path d="M65.625,0H0v100h65.625c9.505,0,17.611-3.354,24.316-10.059C96.646,83.236,100,75.13,100,65.625v-31.25
		c0-9.505-3.354-17.611-10.059-24.316C83.236,3.354,75.13,0,65.625,0z"/>
</g>
</g></g><g transform="translate(280,105) scale(0.35,0.35)"><g transform="" style="fill: rgb(0, 0, 0);">
<g>
	<path d="M100,65.625c0,9.507-3.355,17.611-10.059,24.316C83.236,96.645,75.132,100,65.625,100h-31.25
		c-9.504,0-17.61-3.355-24.315-10.059C3.354,83.236,0,75.132,0,65.625v-31.25c0-9.504,3.353-17.61,10.059-24.315
		C16.766,3.354,24.871,0,34.375,0h31.25c9.508,0,17.613,3.353,24.316,10.059C96.646,16.766,100,24.871,100,34.375V65.625z"/>
</g>
</g></g><g transform="translate(350,105) scale(0.35,0.35)"><g transform="" style="fill: rgb(0, 0, 0);">
<g>
	<path d="M100,65.625c0,9.507-3.355,17.611-10.059,24.316C83.236,96.645,75.132,100,65.625,100h-31.25
		c-9.504,0-17.61-3.355-24.315-10.059C3.354,83.236,0,75.132,0,65.625v-31.25c0-9.504,3.353-17.61,10.059-24.315
		C16.766,3.354,24.871,0,34.375,0h31.25c9.508,0,17.613,3.353,24.316,10.059C96.646,16.766,100,24.871,100,34.375V65.625z"/>
</g>
</g></g><g transform="translate(490,105) scale(0.35,0.35)"><g transform="" style="fill: rgb(0, 0, 0);">
<g>
	<path d="M100,34.375V0H34.375C24.87,0,16.764,3.353,10.059,10.059S0,24.87,0,34.375V100h100V34.375z"/>
</g>
</g></g><g transform="translate(525,105) scale(0.35,0.35)"><g transform="" style="fill: rgb(0, 0, 0);">
<g>
	<path d="M65.625,0H0v100h65.625c9.505,0,17.611-3.354,24.316-10.059C96.646,83.236,100,75.13,100,65.625v-31.25
		c0-9.505-3.354-17.611-10.059-24.316C83.236,3.354,75.13,0,65.625,0z"/>
</g>
</g></g><g transform="translate(595,105) scale(0.35,0.35)"><g transform="" style="fill: rgb(0, 0, 0);">
<g>
	<path d="M100,34.375c0-9.505-3.354-17.611-10.059-24.316C83.236,3.354,75.13,0,65.625,0h-31.25C24.87,0,16.764,3.353,10.059,10.059
		S0,24.87,0,34.375v31.25c0,0.521,0.065,1.303,0.195,2.344H0V100h100V67.969h-0.195c0.132-1.041,0.195-1.822,0.195-2.344V34.375z"/>
</g>
</g></g><g transform="translate(665,105) scale(0.35,0.35)"><g transform="" style="fill: rgb(0, 0, 0);">
<rect width="100" height="100"/>
</g></g><g transform="translate(315,140) scale(0.35,0.35)"><g transform="" style="fill: rgb(0, 0, 0);">
<g>
	<path d="M100,65.625c0,9.507-3.355,17.611-10.059,24.316C83.236,96.645,75.132,100,65.625,100h-31.25
		c-9.504,0-17.61-3.355-24.315-10.059C3.354,83.236,0,75.132,0,65.625v-31.25c0-9.504,3.353-17.61,10.059-24.315
		C16.766,3.354,24.871,0,34.375,0h31.25c9.508,0,17.613,3.353,24.316,10.059C96.646,16.766,100,24.871,100,34.375V65.625z"/>
</g>
</g></g><g transform="translate(490,140) scale(0.35,0.35)"><g transform="" style="fill: rgb(0, 0, 0);">
<g>
	<path d="M99.805,32.031H100V0H0v32.031h0.195C0.065,33.073,0,33.854,0,34.375v31.25c0,9.505,3.353,17.611,10.059,24.316
		C16.765,96.646,24.87,100,34.375,100h31.25c9.505,0,17.611-3.354,24.316-10.059C96.646,83.236,100,75.13,100,65.625v-31.25
		C100,33.854,99.937,33.073,99.805,32.031z"/>
</g>
</g></g><g transform="translate(560,140) scale(0.35,0.35)"><g transform="" style="fill: rgb(0, 0, 0);">
<g>
	<path d="M100,34.375V0H34.375C24.87,0,16.764,3.353,10.059,10.059S0,24.87,0,34.375V100h100V34.375z"/>
</g>
</g></g><g transform="translate(595,140) scale(0.35,0.35)"><g transform="" style="fill: rgb(0, 0, 0);">
<rect width="100" height="100"/>
</g></g><g transform="translate(665,140) scale(0.35,0.35)"><g transform="" style="fill: rgb(0, 0, 0);">
<rect width="100" height="100"/>
</g></g><g transform="translate(350,175) scale(0.35,0.35)"><g transform="" style="fill: rgb(0, 0, 0);">
<g>
	<path d="M100,34.375V0H34.375C24.87,0,16.764,3.353,10.059,10.059S0,24.87,0,34.375V100h100V34.375z"/>
</g>
</g></g><g transform="translate(385,175) scale(0.35,0.35)"><g transform="" style="fill: rgb(0, 0, 0);">
<g>
	<path d="M65.625,0H0v100h65.625c9.505,0,17.611-3.354,24.316-10.059C96.646,83.236,100,75.13,100,65.625v-31.25
		c0-9.505-3.354-17.611-10.059-24.316C83.236,3.354,75.13,0,65.625,0z"/>
</g>
</g></g><g transform="translate(455,175) scale(0.35,0.35)"><g transform="" style="fill: rgb(0, 0, 0);">
<g>
	<path d="M100,65.625c0,9.507-3.355,17.611-10.059,24.316C83.236,96.645,75.132,100,65.625,100h-31.25
		c-9.504,0-17.61-3.355-24.315-10.059C3.354,83.236,0,75.132,0,65.625v-31.25c0-9.504,3.353-17.61,10.059-24.315
		C16.766,3.354,24.871,0,34.375,0h31.25c9.508,0,17.613,3.353,24.316,10.059C96.646,16.766,100,24.871,100,34.375V65.625z"/>
</g>
</g></g><g transform="translate(525,175) scale(0.35,0.35)"><g transform="" style="fill: rgb(0, 0, 0);">
<g>
	<path d="M100,34.375V0H34.375C24.87,0,16.764,3.353,10.059,10.059S0,24.87,0,34.375v31.25c0,9.505,3.353,17.611,10.059,24.316
		C16.765,96.646,24.87,100,34.375,100H100V34.375z"/>
</g>
</g></g><g transform="translate(560,175) scale(0.35,0.35)"><g transform="" style="fill: rgb(0, 0, 0);">
<rect width="100" height="100"/>
</g></g><g transform="translate(595,175) scale(0.35,0.35)"><g transform="" style="fill: rgb(0, 0, 0);">
<g>
	<path d="M100,0H0v100h65.625c9.505,0,17.611-3.354,24.316-10.059C96.646,83.236,100,75.13,100,65.625V0z"/>
</g>
</g></g><g transform="translate(665,175) scale(0.35,0.35)"><g transform="" style="fill: rgb(0, 0, 0);">
<g>
	<path d="M100,0H0v65.625c0,9.505,3.353,17.611,10.059,24.316C16.765,96.646,24.87,100,34.375,100H100V0z"/>
</g>
</g></g><g transform="translate(700,175) scale(0.35,0.35)"><g transform="" style="fill: rgb(0, 0, 0);">
<g>
	<path d="M100,34.375c0-9.505-3.354-17.611-10.059-24.316C83.236,3.354,75.13,0,65.625,0H0v100h100V34.375z"/>
</g>
</g></g><g transform="translate(280,210) scale(0.35,0.35)"><g transform="" style="fill: rgb(0, 0, 0);">
<g>
	<path d="M100,34.375c0-9.505-3.354-17.611-10.059-24.316C83.236,3.354,75.13,0,65.625,0h-31.25C24.87,0,16.764,3.353,10.059,10.059
		S0,24.87,0,34.375v31.25c0,0.521,0.065,1.303,0.195,2.344H0V100h100V67.969h-0.195c0.132-1.041,0.195-1.822,0.195-2.344V34.375z"/>
</g>
</g></g><g transform="translate(350,210) scale(0.35,0.35)"><g transform="" style="fill: rgb(0, 0, 0);">
<g>
	<path d="M99.805,32.031H100V0H0v32.031h0.195C0.065,33.073,0,33.854,0,34.375v31.25c0,9.505,3.353,17.611,10.059,24.316
		C16.765,96.646,24.87,100,34.375,100h31.25c9.505,0,17.611-3.354,24.316-10.059C96.646,83.236,100,75.13,100,65.625v-31.25
		C100,33.854,99.937,33.073,99.805,32.031z"/>
</g>
</g></g><g transform="translate(420,210) scale(0.35,0.35)"><g transform="" style="fill: rgb(0, 0, 0);">
<g>
	<path d="M100,34.375c0-9.505-3.354-17.611-10.059-24.316C83.236,3.354,75.13,0,65.625,0h-31.25C24.87,0,16.764,3.353,10.059,10.059
		S0,24.87,0,34.375v31.25c0,0.521,0.065,1.303,0.195,2.344H0V100h100V67.969h-0.195c0.132-1.041,0.195-1.822,0.195-2.344V34.375z"/>
</g>
</g></g><g transform="translate(490,210) scale(0.35,0.35)"><g transform="" style="fill: rgb(0, 0, 0);">
<g>
	<path d="M100,65.625c0,9.507-3.355,17.611-10.059,24.316C83.236,96.645,75.132,100,65.625,100h-31.25
		c-9.504,0-17.61-3.355-24.315-10.059C3.354,83.236,0,75.132,0,65.625v-31.25c0-9.504,3.353-17.61,10.059-24.315
		C16.766,3.354,24.871,0,34.375,0h31.25c9.508,0,17.613,3.353,24.316,10.059C96.646,16.766,100,24.871,100,34.375V65.625z"/>
</g>
</g></g><g transform="translate(560,210) scale(0.35,0.35)"><g transform="" style="fill: rgb(0, 0, 0);">
<rect width="100" height="100"/>
</g></g><g transform="translate(630,210) scale(0.35,0.35)"><g transform="" style="fill: rgb(0, 0, 0);">
<g>
	<path d="M100,65.625c0,9.507-3.355,17.611-10.059,24.316C83.236,96.645,75.132,100,65.625,100h-31.25
		c-9.504,0-17.61-3.355-24.315-10.059C3.354,83.236,0,75.132,0,65.625v-31.25c0-9.504,3.353-17.61,10.059-24.315
		C16.766,3.354,24.871,0,34.375,0h31.25c9.508,0,17.613,3.353,24.316,10.059C96.646,16.766,100,24.871,100,34.375V65.625z"/>
</g>
</g></g><g transform="translate(700,210) scale(0.35,0.35)"><g transform="" style="fill: rgb(0, 0, 0);">
<g>
	<path d="M99.805,32.031H100V0H0v32.031h0.195C0.065,33.073,0,33.854,0,34.375v31.25c0,9.505,3.353,17.611,10.059,24.316
		C16.765,96.646,24.87,100,34.375,100h31.25c9.505,0,17.611-3.354,24.316-10.059C96.646,83.236,100,75.13,100,65.625v-31.25
		C100,33.854,99.937,33.073,99.805,32.031z"/>
</g>
</g></g><g transform="translate(280,245) scale(0.35,0.35)"><g transform="" style="fill: rgb(0, 0, 0);">
<g>
	<path d="M99.805,32.031H100V0H0v32.031h0.195C0.065,33.073,0,33.854,0,34.375v31.25c0,9.505,3.353,17.611,10.059,24.316
		C16.765,96.646,24.87,100,34.375,100h31.25c9.505,0,17.611-3.354,24.316-10.059C96.646,83.236,100,75.13,100,65.625v-31.25
		C100,33.854,99.937,33.073,99.805,32.031z"/>
</g>
</g></g><g transform="translate(385,245) scale(0.35,0.35)"><g transform="" style="fill: rgb(0, 0, 0);">
<g>
	<path d="M100,34.375V0H34.375C24.87,0,16.764,3.353,10.059,10.059S0,24.87,0,34.375V100h100V34.375z"/>
</g>
</g></g><g transform="translate(420,245) scale(0.35,0.35)"><g transform="" style="fill: rgb(0, 0, 0);">
<rect width="100" height="100"/>
</g></g><g transform="translate(525,245) scale(0.35,0.35)"><g transform="" style="fill: rgb(0, 0, 0);">
<g>
	<path d="M100,34.375V0H34.375C24.87,0,16.764,3.353,10.059,10.059S0,24.87,0,34.375V100h100V34.375z"/>
</g>
</g></g><g transform="translate(560,245) scale(0.35,0.35)"><g transform="" style="fill: rgb(0, 0, 0);">
<rect width="100" height="100"/>
</g></g><g transform="translate(595,245) scale(0.35,0.35)"><g transform="" style="fill: rgb(0, 0, 0);">
<g>
	<path d="M100,34.375c0-9.505-3.354-17.611-10.059-24.316C83.236,3.354,75.13,0,65.625,0H0v100h100V34.375z"/>
</g>
</g></g><g transform="translate(0,280) scale(0.35,0.35)"><g transform="" style="fill: rgb(0, 0, 0);">
<g>
	<path d="M100,34.375c0-9.505-3.354-17.611-10.059-24.316C83.236,3.354,75.13,0,65.625,0h-31.25C24.87,0,16.764,3.353,10.059,10.059
		S0,24.87,0,34.375v31.25c0,0.521,0.065,1.303,0.195,2.344H0V100h100V67.969h-0.195c0.132-1.041,0.195-1.822,0.195-2.344V34.375z"/>
</g>
</g></g><g transform="translate(70,280) scale(0.35,0.35)"><g transform="" style="fill: rgb(0, 0, 0);">
<g>
	<path d="M100,34.375V0H34.375C24.87,0,16.764,3.353,10.059,10.059S0,24.87,0,34.375V100h100V34.375z"/>
</g>
</g></g><g transform="translate(105,280) scale(0.35,0.35)"><g transform="" style="fill: rgb(0, 0, 0);">
<g>
	<path d="M65.625,0H0v100h65.625c9.505,0,17.611-3.354,24.316-10.059C96.646,83.236,100,75.13,100,65.625v-31.25
		c0-9.505-3.354-17.611-10.059-24.316C83.236,3.354,75.13,0,65.625,0z"/>
</g>
</g></g><g transform="translate(175,280) scale(0.35,0.35)"><g transform="" style="fill: rgb(0, 0, 0);">
<g>
	<path d="M100,34.375V0H34.375C24.87,0,16.764,3.353,10.059,10.059S0,24.87,0,34.375v31.25c0,9.505,3.353,17.611,10.059,24.316
		C16.765,96.646,24.87,100,34.375,100H100V34.375z"/>
</g>
</g></g><g transform="translate(210,280) scale(0.35,0.35)"><g transform="" style="fill: rgb(0, 0, 0);">
<rect width="100" height="100"/>
</g></g><g transform="translate(245,280) scale(0.35,0.35)"><g transform="" style="fill: rgb(0, 0, 0);">
<g>
	<path d="M100,34.375c0-9.505-3.354-17.611-10.059-24.316C83.236,3.354,75.13,0,65.625,0H0v100h100V34.375z"/>
</g>
</g></g><g transform="translate(350,280) scale(0.35,0.35)"><g transform="" style="fill: rgb(0, 0, 0);">
<g>
	<path d="M100,34.375V0H34.375C24.87,0,16.764,3.353,10.059,10.059S0,24.87,0,34.375v31.25c0,9.505,3.353,17.611,10.059,24.316
		C16.765,96.646,24.87,100,34.375,100H100V34.375z"/>
</g>
</g></g><g transform="translate(385,280) scale(0.35,0.35)"><g transform="" style="fill: rgb(0, 0, 0);">
<rect width="100" height="100"/>
</g></g><g transform="translate(420,280) scale(0.35,0.35)"><g transform="" style="fill: rgb(0, 0, 0);">
<rect width="100" height="100"/>
</g></g><g transform="translate(455,280) scale(0.35,0.35)"><g transform="" style="fill: rgb(0, 0, 0);">
<g>
	<path d="M100,34.375c0-9.505-3.354-17.611-10.059-24.316C83.236,3.354,75.13,0,65.625,0H0v100h100V34.375z"/>
</g>
</g></g><g transform="translate(525,280) scale(0.35,0.35)"><g transform="" style="fill: rgb(0, 0, 0);">
<rect width="100" height="100"/>
</g></g><g transform="translate(595,280) scale(0.35,0.35)"><g transform="" style="fill: rgb(0, 0, 0);">
<g>
	<path d="M100,0H0v65.625c0,9.505,3.353,17.611,10.059,24.316C16.765,96.646,24.87,100,34.375,100H100V0z"/>
</g>
</g></g><g transform="translate(630,280) scale(0.35,0.35)"><g transform="" style="fill: rgb(0, 0, 0);">
<rect width="100" height="100"/>
</g></g><g transform="translate(665,280) scale(0.35,0.35)"><g transform="" style="fill: rgb(0, 0, 0);">
<rect width="100" height="100"/>
</g></g><g transform="translate(700,280) scale(0.35,0.35)"><g transform="" style="fill: rgb(0, 0, 0);">
<g>
	<path d="M100,34.375c0-9.505-3.354-17.611-10.059-24.316C83.236,3.354,75.13,0,65.625,0H0v100h100V34.375z"/>
</g>
</g></g><g transform="translate(770,280) scale(0.35,0.35)"><g transform="" style="fill: rgb(0, 0, 0);">
<g>
	<path d="M100,34.375c0-9.505-3.354-17.611-10.059-24.316C83.236,3.354,75.13,0,65.625,0h-31.25C24.87,0,16.764,3.353,10.059,10.059
		S0,24.87,0,34.375v31.25c0,0.521,0.065,1.303,0.195,2.344H0V100h100V67.969h-0.195c0.132-1.041,0.195-1.822,0.195-2.344V34.375z"/>
</g>
</g></g><g transform="translate(875,280) scale(0.35,0.35)"><g transform="" style="fill: rgb(0, 0, 0);">
<g>
	<path d="M100,65.625c0,9.507-3.355,17.611-10.059,24.316C83.236,96.645,75.132,100,65.625,100h-31.25
		c-9.504,0-17.61-3.355-24.315-10.059C3.354,83.236,0,75.132,0,65.625v-31.25c0-9.504,3.353-17.61,10.059-24.315
		C16.766,3.354,24.871,0,34.375,0h31.25c9.508,0,17.613,3.353,24.316,10.059C96.646,16.766,100,24.871,100,34.375V65.625z"/>
</g>
</g></g><g transform="translate(945,280) scale(0.35,0.35)"><g transform="" style="fill: rgb(0, 0, 0);">
<g>
	<path d="M100,34.375V0H34.375C24.87,0,16.764,3.353,10.059,10.059S0,24.87,0,34.375v31.25c0,9.505,3.353,17.611,10.059,24.316
		C16.765,96.646,24.87,100,34.375,100H100V34.375z"/>
</g>
</g></g><g transform="translate(980,280) scale(0.35,0.35)"><g transform="" style="fill: rgb(0, 0, 0);">
<g>
	<path d="M100,34.375c0-9.505-3.354-17.611-10.059-24.316C83.236,3.354,75.13,0,65.625,0H0v100h100V34.375z"/>
</g>
</g></g><g transform="translate(0,315) scale(0.35,0.35)"><g transform="" style="fill: rgb(0, 0, 0);">
<rect width="100" height="100"/>
</g></g><g transform="translate(70,315) scale(0.35,0.35)"><g transform="" style="fill: rgb(0, 0, 0);">
<rect width="100" height="100"/>
</g></g><g transform="translate(245,315) scale(0.35,0.35)"><g transform="" style="fill: rgb(0, 0, 0);">
<rect width="100" height="100"/>
</g></g><g transform="translate(455,315) scale(0.35,0.35)"><g transform="" style="fill: rgb(0, 0, 0);">
<rect width="100" height="100"/>
</g></g><g transform="translate(490,315) scale(0.35,0.35)"><g transform="" style="fill: rgb(0, 0, 0);">
<rect width="100" height="100"/>
</g></g><g transform="translate(525,315) scale(0.35,0.35)"><g transform="" style="fill: rgb(0, 0, 0);">
<g>
	<path d="M100,0H0v100h65.625c9.505,0,17.611-3.354,24.316-10.059C96.646,83.236,100,75.13,100,65.625V0z"/>
</g>
</g></g><g transform="translate(630,315) scale(0.35,0.35)"><g transform="" style="fill: rgb(0, 0, 0);">
<rect width="100" height="100"/>
</g></g><g transform="translate(665,315) scale(0.35,0.35)"><g transform="" style="fill: rgb(0, 0, 0);">
<rect width="100" height="100"/>
</g></g><g transform="translate(700,315) scale(0.35,0.35)"><g transform="" style="fill: rgb(0, 0, 0);">
<g>
	<path d="M100,0H0v100h65.625c9.505,0,17.611-3.354,24.316-10.059C96.646,83.236,100,75.13,100,65.625V0z"/>
</g>
</g></g><g transform="translate(770,315) scale(0.35,0.35)"><g transform="" style="fill: rgb(0, 0, 0);">
<g>
	<path d="M100,0H0v65.625c0,9.505,3.353,17.611,10.059,24.316C16.765,96.646,24.87,100,34.375,100H100V0z"/>
</g>
</g></g><g transform="translate(805,315) scale(0.35,0.35)"><g transform="" style="fill: rgb(0, 0, 0);">
<rect width="100" height="100"/>
</g></g><g transform="translate(840,315) scale(0.35,0.35)"><g transform="" style="fill: rgb(0, 0, 0);">
<g>
	<path d="M65.625,0H0v100h65.625c9.505,0,17.611-3.354,24.316-10.059C96.646,83.236,100,75.13,100,65.625v-31.25
		c0-9.505-3.354-17.611-10.059-24.316C83.236,3.354,75.13,0,65.625,0z"/>
</g>
</g></g><g transform="translate(980,315) scale(0.35,0.35)"><g transform="" style="fill: rgb(0, 0, 0);">
<g>
	<path d="M99.805,32.031H100V0H0v32.031h0.195C0.065,33.073,0,33.854,0,34.375v31.25c0,9.505,3.353,17.611,10.059,24.316
		C16.765,96.646,24.87,100,34.375,100h31.25c9.505,0,17.611-3.354,24.316-10.059C96.646,83.236,100,75.13,100,65.625v-31.25
		C100,33.854,99.937,33.073,99.805,32.031z"/>
</g>
</g></g><g transform="translate(0,350) scale(0.35,0.35)"><g transform="" style="fill: rgb(0, 0, 0);">
<rect width="100" height="100"/>
</g></g><g transform="translate(35,350) scale(0.35,0.35)"><g transform="" style="fill: rgb(0, 0, 0);">
<rect width="100" height="100"/>
</g></g><g transform="translate(70,350) scale(0.35,0.35)"><g transform="" style="fill: rgb(0, 0, 0);">
<g>
	<path d="M100,0H0v100h65.625c9.505,0,17.611-3.354,24.316-10.059C96.646,83.236,100,75.13,100,65.625V0z"/>
</g>
</g></g><g transform="translate(140,350) scale(0.35,0.35)"><g transform="" style="fill: rgb(0, 0, 0);">
<g>
	<path d="M100,65.625c0,9.507-3.355,17.611-10.059,24.316C83.236,96.645,75.132,100,65.625,100h-31.25
		c-9.504,0-17.61-3.355-24.315-10.059C3.354,83.236,0,75.132,0,65.625v-31.25c0-9.504,3.353-17.61,10.059-24.315
		C16.766,3.354,24.871,0,34.375,0h31.25c9.508,0,17.613,3.353,24.316,10.059C96.646,16.766,100,24.871,100,34.375V65.625z"/>
</g>
</g></g><g transform="translate(210,350) scale(0.35,0.35)"><g transform="" style="fill: rgb(0, 0, 0);">
<g>
	<path d="M100,34.375V0H34.375C24.87,0,16.764,3.353,10.059,10.059S0,24.87,0,34.375v31.25c0,9.505,3.353,17.611,10.059,24.316
		C16.765,96.646,24.87,100,34.375,100H100V34.375z"/>
</g>
</g></g><g transform="translate(245,350) scale(0.35,0.35)"><g transform="" style="fill: rgb(0, 0, 0);">
<rect width="100" height="100"/>
</g></g><g transform="translate(280,350) scale(0.35,0.35)"><g transform="" style="fill: rgb(0, 0, 0);">
<rect width="100" height="100"/>
</g></g><g transform="translate(315,350) scale(0.35,0.35)"><g transform="" style="fill: rgb(0, 0, 0);">
<g>
	<path d="M65.625,0H0v100h65.625c9.505,0,17.611-3.354,24.316-10.059C96.646,83.236,100,75.13,100,65.625v-31.25
		c0-9.505-3.354-17.611-10.059-24.316C83.236,3.354,75.13,0,65.625,0z"/>
</g>
</g></g><g transform="translate(385,350) scale(0.35,0.35)"><g transform="" style="fill: rgb(0, 0, 0);">
<g>
	<path d="M100,34.375V0H34.375C24.87,0,16.764,3.353,10.059,10.059S0,24.87,0,34.375V100h100V34.375z"/>
</g>
</g></g><g transform="translate(420,350) scale(0.35,0.35)"><g transform="" style="fill: rgb(0, 0, 0);">
<rect width="100" height="100"/>
</g></g><g transform="translate(455,350) scale(0.35,0.35)"><g transform="" style="fill: rgb(0, 0, 0);">
<g>
	<path d="M100,0H0v100h65.625c9.505,0,17.611-3.354,24.316-10.059C96.646,83.236,100,75.13,100,65.625V0z"/>
</g>
</g></g><g transform="translate(560,350) scale(0.35,0.35)"><g transform="" style="fill: rgb(0, 0, 0);">
<g>
	<path d="M100,34.375V0H34.375C24.87,0,16.764,3.353,10.059,10.059S0,24.87,0,34.375V100h100V34.375z"/>
</g>
</g></g><g transform="translate(595,350) scale(0.35,0.35)"><g transform="" style="fill: rgb(0, 0, 0);">
<rect width="100" height="100"/>
</g></g><g transform="translate(630,350) scale(0.35,0.35)"><g transform="" style="fill: rgb(0, 0, 0);">
<rect width="100" height="100"/>
</g></g><g transform="translate(735,350) scale(0.35,0.35)"><g transform="" style="fill: rgb(0, 0, 0);">
<g>
	<path d="M100,65.625c0,9.507-3.355,17.611-10.059,24.316C83.236,96.645,75.132,100,65.625,100h-31.25
		c-9.504,0-17.61-3.355-24.315-10.059C3.354,83.236,0,75.132,0,65.625v-31.25c0-9.504,3.353-17.61,10.059-24.315
		C16.766,3.354,24.871,0,34.375,0h31.25c9.508,0,17.613,3.353,24.316,10.059C96.646,16.766,100,24.871,100,34.375V65.625z"/>
</g>
</g></g><g transform="translate(805,350) scale(0.35,0.35)"><g transform="" style="fill: rgb(0, 0, 0);">
<rect width="100" height="100"/>
</g></g><g transform="translate(910,350) scale(0.35,0.35)"><g transform="" style="fill: rgb(0, 0, 0);">
<g>
	<path d="M100,34.375V0H34.375C24.87,0,16.764,3.353,10.059,10.059S0,24.87,0,34.375v31.25c0,9.505,3.353,17.611,10.059,24.316
		C16.765,96.646,24.87,100,34.375,100H100V34.375z"/>
</g>
</g></g><g transform="translate(945,350) scale(0.35,0.35)"><g transform="" style="fill: rgb(0, 0, 0);">
<g>
	<path d="M65.625,0H0v100h65.625c9.505,0,17.611-3.354,24.316-10.059C96.646,83.236,100,75.13,100,65.625v-31.25
		c0-9.505-3.354-17.611-10.059-24.316C83.236,3.354,75.13,0,65.625,0z"/>
</g>
</g></g><g transform="translate(0,385) scale(0.35,0.35)"><g transform="" style="fill: rgb(0, 0, 0);">
<rect width="100" height="100"/>
</g></g><g transform="translate(105,385) scale(0.35,0.35)"><g transform="" style="fill: rgb(0, 0, 0);">
<g>
	<path d="M100,34.375c0-9.505-3.354-17.611-10.059-24.316C83.236,3.354,75.13,0,65.625,0h-31.25C24.87,0,16.764,3.353,10.059,10.059
		S0,24.87,0,34.375v31.25c0,0.521,0.065,1.303,0.195,2.344H0V100h100V67.969h-0.195c0.132-1.041,0.195-1.822,0.195-2.344V34.375z"/>
</g>
</g></g><g transform="translate(175,385) scale(0.35,0.35)"><g transform="" style="fill: rgb(0, 0, 0);">
<g>
	<path d="M100,65.625c0,9.507-3.355,17.611-10.059,24.316C83.236,96.645,75.132,100,65.625,100h-31.25
		c-9.504,0-17.61-3.355-24.315-10.059C3.354,83.236,0,75.132,0,65.625v-31.25c0-9.504,3.353-17.61,10.059-24.315
		C16.766,3.354,24.871,0,34.375,0h31.25c9.508,0,17.613,3.353,24.316,10.059C96.646,16.766,100,24.871,100,34.375V65.625z"/>
</g>
</g></g><g transform="translate(245,385) scale(0.35,0.35)"><g transform="" style="fill: rgb(0, 0, 0);">
<g>
	<path d="M99.805,32.031H100V0H0v32.031h0.195C0.065,33.073,0,33.854,0,34.375v31.25c0,9.505,3.353,17.611,10.059,24.316
		C16.765,96.646,24.87,100,34.375,100h31.25c9.505,0,17.611-3.354,24.316-10.059C96.646,83.236,100,75.13,100,65.625v-31.25
		C100,33.854,99.937,33.073,99.805,32.031z"/>
</g>
</g></g><g transform="translate(350,385) scale(0.35,0.35)"><g transform="" style="fill: rgb(0, 0, 0);">
<g>
	<path d="M100,34.375V0H34.375C24.87,0,16.764,3.353,10.059,10.059S0,24.87,0,34.375V100h100V34.375z"/>
</g>
</g></g><g transform="translate(385,385) scale(0.35,0.35)"><g transform="" style="fill: rgb(0, 0, 0);">
<rect width="100" height="100"/>
</g></g><g transform="translate(420,385) scale(0.35,0.35)"><g transform="" style="fill: rgb(0, 0, 0);">
<g>
	<path d="M100,0H0v100h65.625c9.505,0,17.611-3.354,24.316-10.059C96.646,83.236,100,75.13,100,65.625V0z"/>
</g>
</g></g><g transform="translate(560,385) scale(0.35,0.35)"><g transform="" style="fill: rgb(0, 0, 0);">
<g>
	<path d="M99.805,32.031H100V0H0v32.031h0.195C0.065,33.073,0,33.854,0,34.375v31.25c0,9.505,3.353,17.611,10.059,24.316
		C16.765,96.646,24.87,100,34.375,100h31.25c9.505,0,17.611-3.354,24.316-10.059C96.646,83.236,100,75.13,100,65.625v-31.25
		C100,33.854,99.937,33.073,99.805,32.031z"/>
</g>
</g></g><g transform="translate(630,385) scale(0.35,0.35)"><g transform="" style="fill: rgb(0, 0, 0);">
<rect width="100" height="100"/>
</g></g><g transform="translate(665,385) scale(0.35,0.35)"><g transform="" style="fill: rgb(0, 0, 0);">
<g>
	<path d="M100,34.375c0-9.505-3.354-17.611-10.059-24.316C83.236,3.354,75.13,0,65.625,0H0v100h100V34.375z"/>
</g>
</g></g><g transform="translate(770,385) scale(0.35,0.35)"><g transform="" style="fill: rgb(0, 0, 0);">
<g>
	<path d="M100,34.375V0H34.375C24.87,0,16.764,3.353,10.059,10.059S0,24.87,0,34.375v31.25c0,9.505,3.353,17.611,10.059,24.316
		C16.765,96.646,24.87,100,34.375,100H100V34.375z"/>
</g>
</g></g><g transform="translate(805,385) scale(0.35,0.35)"><g transform="" style="fill: rgb(0, 0, 0);">
<rect width="100" height="100"/>
</g></g><g transform="translate(980,385) scale(0.35,0.35)"><g transform="" style="fill: rgb(0, 0, 0);">
<g>
	<path d="M100,65.625c0,9.507-3.355,17.611-10.059,24.316C83.236,96.645,75.132,100,65.625,100h-31.25
		c-9.504,0-17.61-3.355-24.315-10.059C3.354,83.236,0,75.132,0,65.625v-31.25c0-9.504,3.353-17.61,10.059-24.315
		C16.766,3.354,24.871,0,34.375,0h31.25c9.508,0,17.613,3.353,24.316,10.059C96.646,16.766,100,24.871,100,34.375V65.625z"/>
</g>
</g></g><g transform="translate(0,420) scale(0.35,0.35)"><g transform="" style="fill: rgb(0, 0, 0);">
<g>
	<path d="M100,0H0v65.625c0,9.505,3.353,17.611,10.059,24.316C16.765,96.646,24.87,100,34.375,100H100V0z"/>
</g>
</g></g><g transform="translate(35,420) scale(0.35,0.35)"><g transform="" style="fill: rgb(0, 0, 0);">
<g>
	<path d="M100,34.375c0-9.505-3.354-17.611-10.059-24.316C83.236,3.354,75.13,0,65.625,0H0v100h100V34.375z"/>
</g>
</g></g><g transform="translate(105,420) scale(0.35,0.35)"><g transform="" style="fill: rgb(0, 0, 0);">
<rect width="100" height="100"/>
</g></g><g transform="translate(210,420) scale(0.35,0.35)"><g transform="" style="fill: rgb(0, 0, 0);">
<g>
	<path d="M100,65.625c0,9.507-3.355,17.611-10.059,24.316C83.236,96.645,75.132,100,65.625,100h-31.25
		c-9.504,0-17.61-3.355-24.315-10.059C3.354,83.236,0,75.132,0,65.625v-31.25c0-9.504,3.353-17.61,10.059-24.315
		C16.766,3.354,24.871,0,34.375,0h31.25c9.508,0,17.613,3.353,24.316,10.059C96.646,16.766,100,24.871,100,34.375V65.625z"/>
</g>
</g></g><g transform="translate(280,420) scale(0.35,0.35)"><g transform="" style="fill: rgb(0, 0, 0);">
<g>
	<path d="M100,34.375V0H34.375C24.87,0,16.764,3.353,10.059,10.059S0,24.87,0,34.375V100h100V34.375z"/>
</g>
</g></g><g transform="translate(315,420) scale(0.35,0.35)"><g transform="" style="fill: rgb(0, 0, 0);">
<rect width="100" height="100"/>
</g></g><g transform="translate(350,420) scale(0.35,0.35)"><g transform="" style="fill: rgb(0, 0, 0);">
<rect width="100" height="100"/>
</g></g><g transform="translate(385,420) scale(0.35,0.35)"><g transform="" style="fill: rgb(0, 0, 0);">
<rect width="100" height="100"/>
</g></g><g transform="translate(490,420) scale(0.35,0.35)"><g transform="" style="fill: rgb(0, 0, 0);">
<g>
	<path d="M100,34.375V0H34.375C24.87,0,16.764,3.353,10.059,10.059S0,24.87,0,34.375V100h100V34.375z"/>
</g>
</g></g><g transform="translate(525,420) scale(0.35,0.35)"><g transform="" style="fill: rgb(0, 0, 0);">
<g>
	<path d="M65.625,0H0v100h65.625c9.505,0,17.611-3.354,24.316-10.059C96.646,83.236,100,75.13,100,65.625v-31.25
		c0-9.505-3.354-17.611-10.059-24.316C83.236,3.354,75.13,0,65.625,0z"/>
</g>
</g></g><g transform="translate(595,420) scale(0.35,0.35)"><g transform="" style="fill: rgb(0, 0, 0);">
<g>
	<path d="M100,34.375V0H34.375C24.87,0,16.764,3.353,10.059,10.059S0,24.87,0,34.375v31.25c0,9.505,3.353,17.611,10.059,24.316
		C16.765,96.646,24.87,100,34.375,100H100V34.375z"/>
</g>
</g></g><g transform="translate(630,420) scale(0.35,0.35)"><g transform="" style="fill: rgb(0, 0, 0);">
<rect width="100" height="100"/>
</g></g><g transform="translate(665,420) scale(0.35,0.35)"><g transform="" style="fill: rgb(0, 0, 0);">
<rect width="100" height="100"/>
</g></g><g transform="translate(805,420) scale(0.35,0.35)"><g transform="" style="fill: rgb(0, 0, 0);">
<g>
	<path d="M99.805,32.031H100V0H0v32.031h0.195C0.065,33.073,0,33.854,0,34.375v31.25c0,9.505,3.353,17.611,10.059,24.316
		C16.765,96.646,24.87,100,34.375,100h31.25c9.505,0,17.611-3.354,24.316-10.059C96.646,83.236,100,75.13,100,65.625v-31.25
		C100,33.854,99.937,33.073,99.805,32.031z"/>
</g>
</g></g><g transform="translate(875,420) scale(0.35,0.35)"><g transform="" style="fill: rgb(0, 0, 0);">
<g>
	<path d="M100,34.375V0H34.375C24.87,0,16.764,3.353,10.059,10.059S0,24.87,0,34.375v31.25c0,9.505,3.353,17.611,10.059,24.316
		C16.765,96.646,24.87,100,34.375,100H100V34.375z"/>
</g>
</g></g><g transform="translate(910,420) scale(0.35,0.35)"><g transform="" style="fill: rgb(0, 0, 0);">
<g>
	<path d="M100,34.375c0-9.505-3.354-17.611-10.059-24.316C83.236,3.354,75.13,0,65.625,0H0v100h100V34.375z"/>
</g>
</g></g><g transform="translate(35,455) scale(0.35,0.35)"><g transform="" style="fill: rgb(0, 0, 0);">
<g>
	<path d="M99.805,32.031H100V0H0v32.031h0.195C0.065,33.073,0,33.854,0,34.375v31.25c0,9.505,3.353,17.611,10.059,24.316
		C16.765,96.646,24.87,100,34.375,100h31.25c9.505,0,17.611-3.354,24.316-10.059C96.646,83.236,100,75.13,100,65.625v-31.25
		C100,33.854,99.937,33.073,99.805,32.031z"/>
</g>
</g></g><g transform="translate(105,455) scale(0.35,0.35)"><g transform="" style="fill: rgb(0, 0, 0);">
<g>
	<path d="M100,0H0v65.625c0,9.505,3.353,17.611,10.059,24.316C16.765,96.646,24.87,100,34.375,100H100V0z"/>
</g>
</g></g><g transform="translate(140,455) scale(0.35,0.35)"><g transform="" style="fill: rgb(0, 0, 0);">
<rect width="100" height="100"/>
</g></g><g transform="translate(175,455) scale(0.35,0.35)"><g transform="" style="fill: rgb(0, 0, 0);">
<g>
	<path d="M100,34.375c0-9.505-3.354-17.611-10.059-24.316C83.236,3.354,75.13,0,65.625,0H0v100h100V34.375z"/>
</g>
</g></g><g transform="translate(245,455) scale(0.35,0.35)"><g transform="" style="fill: rgb(0, 0, 0);">
<g>
	<path d="M100,34.375V0H34.375C24.87,0,16.764,3.353,10.059,10.059S0,24.87,0,34.375V100h100V34.375z"/>
</g>
</g></g><g transform="translate(280,455) scale(0.35,0.35)"><g transform="" style="fill: rgb(0, 0, 0);">
<g>
	<path d="M100,0H0v100h65.625c9.505,0,17.611-3.354,24.316-10.059C96.646,83.236,100,75.13,100,65.625V0z"/>
</g>
</g></g><g transform="translate(350,455) scale(0.35,0.35)"><g transform="" style="fill: rgb(0, 0, 0);">
<rect width="100" height="100"/>
</g></g><g transform="translate(385,455) scale(0.35,0.35)"><g transform="" style="fill: rgb(0, 0, 0);">
<rect width="100" height="100"/>
</g></g><g transform="translate(420,455) scale(0.35,0.35)"><g transform="" style="fill: rgb(0, 0, 0);">
<g>
	<path d="M100,34.375c0-9.505-3.354-17.611-10.059-24.316C83.236,3.354,75.13,0,65.625,0H0v100h100V34.375z"/>
</g>
</g></g><g transform="translate(490,455) scale(0.35,0.35)"><g transform="" style="fill: rgb(0, 0, 0);">
<g>
	<path d="M99.805,32.031H100V0H0v32.031h0.195C0.065,33.073,0,33.854,0,34.375v31.25c0,9.505,3.353,17.611,10.059,24.316
		C16.765,96.646,24.87,100,34.375,100h31.25c9.505,0,17.611-3.354,24.316-10.059C96.646,83.236,100,75.13,100,65.625v-31.25
		C100,33.854,99.937,33.073,99.805,32.031z"/>
</g>
</g></g><g transform="translate(560,455) scale(0.35,0.35)"><g transform="" style="fill: rgb(0, 0, 0);">
<g>
	<path d="M100,34.375c0-9.505-3.354-17.611-10.059-24.316C83.236,3.354,75.13,0,65.625,0h-31.25C24.87,0,16.764,3.353,10.059,10.059
		S0,24.87,0,34.375v31.25c0,0.521,0.065,1.303,0.195,2.344H0V100h100V67.969h-0.195c0.132-1.041,0.195-1.822,0.195-2.344V34.375z"/>
</g>
</g></g><g transform="translate(665,455) scale(0.35,0.35)"><g transform="" style="fill: rgb(0, 0, 0);">
<rect width="100" height="100"/>
</g></g><g transform="translate(770,455) scale(0.35,0.35)"><g transform="" style="fill: rgb(0, 0, 0);">
<g>
	<path d="M100,34.375c0-9.505-3.354-17.611-10.059-24.316C83.236,3.354,75.13,0,65.625,0h-31.25C24.87,0,16.764,3.353,10.059,10.059
		S0,24.87,0,34.375v31.25c0,0.521,0.065,1.303,0.195,2.344H0V100h100V67.969h-0.195c0.132-1.041,0.195-1.822,0.195-2.344V34.375z"/>
</g>
</g></g><g transform="translate(910,455) scale(0.35,0.35)"><g transform="" style="fill: rgb(0, 0, 0);">
<rect width="100" height="100"/>
</g></g><g transform="translate(945,455) scale(0.35,0.35)"><g transform="" style="fill: rgb(0, 0, 0);">
<rect width="100" height="100"/>
</g></g><g transform="translate(980,455) scale(0.35,0.35)"><g transform="" style="fill: rgb(0, 0, 0);">
<g>
	<path d="M100,34.375c0-9.505-3.354-17.611-10.059-24.316C83.236,3.354,75.13,0,65.625,0H0v100h100V34.375z"/>
</g>
</g></g><g transform="translate(70,490) scale(0.35,0.35)"><g transform="" style="fill: rgb(0, 0, 0);">
<g>
	<path d="M100,34.375c0-9.505-3.354-17.611-10.059-24.316C83.236,3.354,75.13,0,65.625,0h-31.25C24.87,0,16.764,3.353,10.059,10.059
		S0,24.87,0,34.375v31.25c0,0.521,0.065,1.303,0.195,2.344H0V100h100V67.969h-0.195c0.132-1.041,0.195-1.822,0.195-2.344V34.375z"/>
</g>
</g></g><g transform="translate(175,490) scale(0.35,0.35)"><g transform="" style="fill: rgb(0, 0, 0);">
<g>
	<path d="M100,0H0v65.625c0,9.505,3.353,17.611,10.059,24.316C16.765,96.646,24.87,100,34.375,100H100V0z"/>
</g>
</g></g><g transform="translate(210,490) scale(0.35,0.35)"><g transform="" style="fill: rgb(0, 0, 0);">
<rect width="100" height="100"/>
</g></g><g transform="translate(245,490) scale(0.35,0.35)"><g transform="" style="fill: rgb(0, 0, 0);">
<g>
	<path d="M100,0H0v100h65.625c9.505,0,17.611-3.354,24.316-10.059C96.646,83.236,100,75.13,100,65.625V0z"/>
</g>
</g></g><g transform="translate(350,490) scale(0.35,0.35)"><g transform="" style="fill: rgb(0, 0, 0);">
<rect width="100" height="100"/>
</g></g><g transform="translate(420,490) scale(0.35,0.35)"><g transform="" style="fill: rgb(0, 0, 0);">
<g>
	<path d="M100,0H0v65.625c0,9.505,3.353,17.611,10.059,24.316C16.765,96.646,24.87,100,34.375,100H100V0z"/>
</g>
</g></g><g transform="translate(455,490) scale(0.35,0.35)"><g transform="" style="fill: rgb(0, 0, 0);">
<g>
	<path d="M65.625,0H0v100h65.625c9.505,0,17.611-3.354,24.316-10.059C96.646,83.236,100,75.13,100,65.625v-31.25
		c0-9.505-3.354-17.611-10.059-24.316C83.236,3.354,75.13,0,65.625,0z"/>
</g>
</g></g><g transform="translate(525,490) scale(0.35,0.35)"><g transform="" style="fill: rgb(0, 0, 0);">
<g>
	<path d="M100,34.375V0H34.375C24.87,0,16.764,3.353,10.059,10.059S0,24.87,0,34.375v31.25c0,9.505,3.353,17.611,10.059,24.316
		C16.765,96.646,24.87,100,34.375,100H100V34.375z"/>
</g>
</g></g><g transform="translate(560,490) scale(0.35,0.35)"><g transform="" style="fill: rgb(0, 0, 0);">
<rect width="100" height="100"/>
</g></g><g transform="translate(595,490) scale(0.35,0.35)"><g transform="" style="fill: rgb(0, 0, 0);">
<rect width="100" height="100"/>
</g></g><g transform="translate(630,490) scale(0.35,0.35)"><g transform="" style="fill: rgb(0, 0, 0);">
<rect width="100" height="100"/>
</g></g><g transform="translate(665,490) scale(0.35,0.35)"><g transform="" style="fill: rgb(0, 0, 0);">
<rect width="100" height="100"/>
</g></g><g transform="translate(700,490) scale(0.35,0.35)"><g transform="" style="fill: rgb(0, 0, 0);">
<rect width="100" height="100"/>
</g></g><g transform="translate(735,490) scale(0.35,0.35)"><g transform="" style="fill: rgb(0, 0, 0);">
<rect width="100" height="100"/>
</g></g><g transform="translate(770,490) scale(0.35,0.35)"><g transform="" style="fill: rgb(0, 0, 0);">
<rect width="100" height="100"/>
</g></g><g transform="translate(805,490) scale(0.35,0.35)"><g transform="" style="fill: rgb(0, 0, 0);">
<g>
	<path d="M100,34.375c0-9.505-3.354-17.611-10.059-24.316C83.236,3.354,75.13,0,65.625,0H0v100h100V34.375z"/>
</g>
</g></g><g transform="translate(910,490) scale(0.35,0.35)"><g transform="" style="fill: rgb(0, 0, 0);">
<g>
	<path d="M100,0H0v65.625c0,9.505,3.353,17.611,10.059,24.316C16.765,96.646,24.87,100,34.375,100H100V0z"/>
</g>
</g></g><g transform="translate(945,490) scale(0.35,0.35)"><g transform="" style="fill: rgb(0, 0, 0);">
<rect width="100" height="100"/>
</g></g><g transform="translate(980,490) scale(0.35,0.35)"><g transform="" style="fill: rgb(0, 0, 0);">
<g>
	<path d="M100,0H0v100h65.625c9.505,0,17.611-3.354,24.316-10.059C96.646,83.236,100,75.13,100,65.625V0z"/>
</g>
</g></g><g transform="translate(0,525) scale(0.35,0.35)"><g transform="" style="fill: rgb(0, 0, 0);">
<g>
	<path d="M100,65.625c0,9.507-3.355,17.611-10.059,24.316C83.236,96.645,75.132,100,65.625,100h-31.25
		c-9.504,0-17.61-3.355-24.315-10.059C3.354,83.236,0,75.132,0,65.625v-31.25c0-9.504,3.353-17.61,10.059-24.315
		C16.766,3.354,24.871,0,34.375,0h31.25c9.508,0,17.613,3.353,24.316,10.059C96.646,16.766,100,24.871,100,34.375V65.625z"/>
</g>
</g></g><g transform="translate(70,525) scale(0.35,0.35)"><g transform="" style="fill: rgb(0, 0, 0);">
<g>
	<path d="M100,0H0v65.625c0,9.505,3.353,17.611,10.059,24.316C16.765,96.646,24.87,100,34.375,100H100V0z"/>
</g>
</g></g><g transform="translate(105,525) scale(0.35,0.35)"><g transform="" style="fill: rgb(0, 0, 0);">
<rect width="100" height="100"/>
</g></g><g transform="translate(140,525) scale(0.35,0.35)"><g transform="" style="fill: rgb(0, 0, 0);">
<g>
	<path d="M65.625,0H0v100h65.625c9.505,0,17.611-3.354,24.316-10.059C96.646,83.236,100,75.13,100,65.625v-31.25
		c0-9.505-3.354-17.611-10.059-24.316C83.236,3.354,75.13,0,65.625,0z"/>
</g>
</g></g><g transform="translate(315,525) scale(0.35,0.35)"><g transform="" style="fill: rgb(0, 0, 0);">
<g>
	<path d="M100,34.375V0H34.375C24.87,0,16.764,3.353,10.059,10.059S0,24.87,0,34.375v31.25c0,9.505,3.353,17.611,10.059,24.316
		C16.765,96.646,24.87,100,34.375,100H100V34.375z"/>
</g>
</g></g><g transform="translate(350,525) scale(0.35,0.35)"><g transform="" style="fill: rgb(0, 0, 0);">
<rect width="100" height="100"/>
</g></g><g transform="translate(385,525) scale(0.35,0.35)"><g transform="" style="fill: rgb(0, 0, 0);">
<g>
	<path d="M65.625,0H0v100h65.625c9.505,0,17.611-3.354,24.316-10.059C96.646,83.236,100,75.13,100,65.625v-31.25
		c0-9.505-3.354-17.611-10.059-24.316C83.236,3.354,75.13,0,65.625,0z"/>
</g>
</g></g><g transform="translate(490,525) scale(0.35,0.35)"><g transform="" style="fill: rgb(0, 0, 0);">
<g>
	<path d="M100,34.375c0-9.505-3.354-17.611-10.059-24.316C83.236,3.354,75.13,0,65.625,0h-31.25C24.87,0,16.764,3.353,10.059,10.059
		S0,24.87,0,34.375v31.25c0,0.521,0.065,1.303,0.195,2.344H0V100h100V67.969h-0.195c0.132-1.041,0.195-1.822,0.195-2.344V34.375z"/>
</g>
</g></g><g transform="translate(560,525) scale(0.35,0.35)"><g transform="" style="fill: rgb(0, 0, 0);">
<rect width="100" height="100"/>
</g></g><g transform="translate(665,525) scale(0.35,0.35)"><g transform="" style="fill: rgb(0, 0, 0);">
<g>
	<path d="M100,0H0v65.625c0,9.505,3.353,17.611,10.059,24.316C16.765,96.646,24.87,100,34.375,100H100V0z"/>
</g>
</g></g><g transform="translate(700,525) scale(0.35,0.35)"><g transform="" style="fill: rgb(0, 0, 0);">
<rect width="100" height="100"/>
</g></g><g transform="translate(805,525) scale(0.35,0.35)"><g transform="" style="fill: rgb(0, 0, 0);">
<g>
	<path d="M100,0H0v65.625c0,9.505,3.353,17.611,10.059,24.316C16.765,96.646,24.87,100,34.375,100H100V0z"/>
</g>
</g></g><g transform="translate(840,525) scale(0.35,0.35)"><g transform="" style="fill: rgb(0, 0, 0);">
<g>
	<path d="M100,34.375c0-9.505-3.354-17.611-10.059-24.316C83.236,3.354,75.13,0,65.625,0H0v100h100V34.375z"/>
</g>
</g></g><g transform="translate(945,525) scale(0.35,0.35)"><g transform="" style="fill: rgb(0, 0, 0);">
<rect width="100" height="100"/>
</g></g><g transform="translate(35,560) scale(0.35,0.35)"><g transform="" style="fill: rgb(0, 0, 0);">
<g>
	<path d="M100,34.375c0-9.505-3.354-17.611-10.059-24.316C83.236,3.354,75.13,0,65.625,0h-31.25C24.87,0,16.764,3.353,10.059,10.059
		S0,24.87,0,34.375v31.25c0,0.521,0.065,1.303,0.195,2.344H0V100h100V67.969h-0.195c0.132-1.041,0.195-1.822,0.195-2.344V34.375z"/>
</g>
</g></g><g transform="translate(105,560) scale(0.35,0.35)"><g transform="" style="fill: rgb(0, 0, 0);">
<g>
	<path d="M99.805,32.031H100V0H0v32.031h0.195C0.065,33.073,0,33.854,0,34.375v31.25c0,9.505,3.353,17.611,10.059,24.316
		C16.765,96.646,24.87,100,34.375,100h31.25c9.505,0,17.611-3.354,24.316-10.059C96.646,83.236,100,75.13,100,65.625v-31.25
		C100,33.854,99.937,33.073,99.805,32.031z"/>
</g>
</g></g><g transform="translate(210,560) scale(0.35,0.35)"><g transform="" style="fill: rgb(0, 0, 0);">
<g>
	<path d="M100,65.625c0,9.507-3.355,17.611-10.059,24.316C83.236,96.645,75.132,100,65.625,100h-31.25
		c-9.504,0-17.61-3.355-24.315-10.059C3.354,83.236,0,75.132,0,65.625v-31.25c0-9.504,3.353-17.61,10.059-24.315
		C16.766,3.354,24.871,0,34.375,0h31.25c9.508,0,17.613,3.353,24.316,10.059C96.646,16.766,100,24.871,100,34.375V65.625z"/>
</g>
</g></g><g transform="translate(490,560) scale(0.35,0.35)"><g transform="" style="fill: rgb(0, 0, 0);">
<rect width="100" height="100"/>
</g></g><g transform="translate(525,560) scale(0.35,0.35)"><g transform="" style="fill: rgb(0, 0, 0);">
<rect width="100" height="100"/>
</g></g><g transform="translate(560,560) scale(0.35,0.35)"><g transform="" style="fill: rgb(0, 0, 0);">
<rect width="100" height="100"/>
</g></g><g transform="translate(630,560) scale(0.35,0.35)"><g transform="" style="fill: rgb(0, 0, 0);">
<g>
	<path d="M100,34.375c0-9.505-3.354-17.611-10.059-24.316C83.236,3.354,75.13,0,65.625,0h-31.25C24.87,0,16.764,3.353,10.059,10.059
		S0,24.87,0,34.375v31.25c0,0.521,0.065,1.303,0.195,2.344H0V100h100V67.969h-0.195c0.132-1.041,0.195-1.822,0.195-2.344V34.375z"/>
</g>
</g></g><g transform="translate(700,560) scale(0.35,0.35)"><g transform="" style="fill: rgb(0, 0, 0);">
<rect width="100" height="100"/>
</g></g><g transform="translate(735,560) scale(0.35,0.35)"><g transform="" style="fill: rgb(0, 0, 0);">
<g>
	<path d="M100,34.375c0-9.505-3.354-17.611-10.059-24.316C83.236,3.354,75.13,0,65.625,0H0v100h100V34.375z"/>
</g>
</g></g><g transform="translate(840,560) scale(0.35,0.35)"><g transform="" style="fill: rgb(0, 0, 0);">
<g>
	<path d="M100,0H0v65.625c0,9.505,3.353,17.611,10.059,24.316C16.765,96.646,24.87,100,34.375,100H100V0z"/>
</g>
</g></g><g transform="translate(875,560) scale(0.35,0.35)"><g transform="" style="fill: rgb(0, 0, 0);">
<g>
	<path d="M100,34.375c0-9.505-3.354-17.611-10.059-24.316C83.236,3.354,75.13,0,65.625,0H0v100h100V34.375z"/>
</g>
</g></g><g transform="translate(945,560) scale(0.35,0.35)"><g transform="" style="fill: rgb(0, 0, 0);">
<rect width="100" height="100"/>
</g></g><g transform="translate(35,595) scale(0.35,0.35)"><g transform="" style="fill: rgb(0, 0, 0);">
<g>
	<path d="M100,0H0v65.625c0,9.505,3.353,17.611,10.059,24.316C16.765,96.646,24.87,100,34.375,100H100V0z"/>
</g>
</g></g><g transform="translate(70,595) scale(0.35,0.35)"><g transform="" style="fill: rgb(0, 0, 0);">
<g>
	<path d="M100,34.375c0-9.505-3.354-17.611-10.059-24.316C83.236,3.354,75.13,0,65.625,0H0v100h100V34.375z"/>
</g>
</g></g><g transform="translate(280,595) scale(0.35,0.35)"><g transform="" style="fill: rgb(0, 0, 0);">
<g>
	<path d="M100,34.375V0H34.375C24.87,0,16.764,3.353,10.059,10.059S0,24.87,0,34.375V100h100V34.375z"/>
</g>
</g></g><g transform="translate(315,595) scale(0.35,0.35)"><g transform="" style="fill: rgb(0, 0, 0);">
<g>
	<path d="M65.625,0H0v100h65.625c9.505,0,17.611-3.354,24.316-10.059C96.646,83.236,100,75.13,100,65.625v-31.25
		c0-9.505-3.354-17.611-10.059-24.316C83.236,3.354,75.13,0,65.625,0z"/>
</g>
</g></g><g transform="translate(490,595) scale(0.35,0.35)"><g transform="" style="fill: rgb(0, 0, 0);">
<rect width="100" height="100"/>
</g></g><g transform="translate(560,595) scale(0.35,0.35)"><g transform="" style="fill: rgb(0, 0, 0);">
<rect width="100" height="100"/>
</g></g><g transform="translate(630,595) scale(0.35,0.35)"><g transform="" style="fill: rgb(0, 0, 0);">
<rect width="100" height="100"/>
</g></g><g transform="translate(700,595) scale(0.35,0.35)"><g transform="" style="fill: rgb(0, 0, 0);">
<g>
	<path d="M100,0H0v65.625c0,9.505,3.353,17.611,10.059,24.316C16.765,96.646,24.87,100,34.375,100H100V0z"/>
</g>
</g></g><g transform="translate(735,595) scale(0.35,0.35)"><g transform="" style="fill: rgb(0, 0, 0);">
<rect width="100" height="100"/>
</g></g><g transform="translate(805,595) scale(0.35,0.35)"><g transform="" style="fill: rgb(0, 0, 0);">
<g>
	<path d="M100,65.625c0,9.507-3.355,17.611-10.059,24.316C83.236,96.645,75.132,100,65.625,100h-31.25
		c-9.504,0-17.61-3.355-24.315-10.059C3.354,83.236,0,75.132,0,65.625v-31.25c0-9.504,3.353-17.61,10.059-24.315
		C16.766,3.354,24.871,0,34.375,0h31.25c9.508,0,17.613,3.353,24.316,10.059C96.646,16.766,100,24.871,100,34.375V65.625z"/>
</g>
</g></g><g transform="translate(875,595) scale(0.35,0.35)"><g transform="" style="fill: rgb(0, 0, 0);">
<g>
	<path d="M100,0H0v65.625c0,9.505,3.353,17.611,10.059,24.316C16.765,96.646,24.87,100,34.375,100H100V0z"/>
</g>
</g></g><g transform="translate(910,595) scale(0.35,0.35)"><g transform="" style="fill: rgb(0, 0, 0);">
<rect width="100" height="100"/>
</g></g><g transform="translate(945,595) scale(0.35,0.35)"><g transform="" style="fill: rgb(0, 0, 0);">
<g>
	<path d="M100,0H0v100h65.625c9.505,0,17.611-3.354,24.316-10.059C96.646,83.236,100,75.13,100,65.625V0z"/>
</g>
</g></g><g transform="translate(0,630) scale(0.35,0.35)"><g transform="" style="fill: rgb(0, 0, 0);">
<g>
	<path d="M100,65.625c0,9.507-3.355,17.611-10.059,24.316C83.236,96.645,75.132,100,65.625,100h-31.25
		c-9.504,0-17.61-3.355-24.315-10.059C3.354,83.236,0,75.132,0,65.625v-31.25c0-9.504,3.353-17.61,10.059-24.315
		C16.766,3.354,24.871,0,34.375,0h31.25c9.508,0,17.613,3.353,24.316,10.059C96.646,16.766,100,24.871,100,34.375V65.625z"/>
</g>
</g></g><g transform="translate(70,630) scale(0.35,0.35)"><g transform="" style="fill: rgb(0, 0, 0);">
<g>
	<path d="M100,0H0v65.625c0,9.505,3.353,17.611,10.059,24.316C16.765,96.646,24.87,100,34.375,100H100V0z"/>
</g>
</g></g><g transform="translate(105,630) scale(0.35,0.35)"><g transform="" style="fill: rgb(0, 0, 0);">
<rect width="100" height="100"/>
</g></g><g transform="translate(140,630) scale(0.35,0.35)"><g transform="" style="fill: rgb(0, 0, 0);">
<rect width="100" height="100"/>
</g></g><g transform="translate(175,630) scale(0.35,0.35)"><g transform="" style="fill: rgb(0, 0, 0);">
<rect width="100" height="100"/>
</g></g><g transform="translate(210,630) scale(0.35,0.35)"><g transform="" style="fill: rgb(0, 0, 0);">
<g>
	<path d="M65.625,0H0v100h65.625c9.505,0,17.611-3.354,24.316-10.059C96.646,83.236,100,75.13,100,65.625v-31.25
		c0-9.505-3.354-17.611-10.059-24.316C83.236,3.354,75.13,0,65.625,0z"/>
</g>
</g></g><g transform="translate(280,630) scale(0.35,0.35)"><g transform="" style="fill: rgb(0, 0, 0);">
<g>
	<path d="M99.805,32.031H100V0H0v32.031h0.195C0.065,33.073,0,33.854,0,34.375v31.25c0,9.505,3.353,17.611,10.059,24.316
		C16.765,96.646,24.87,100,34.375,100h31.25c9.505,0,17.611-3.354,24.316-10.059C96.646,83.236,100,75.13,100,65.625v-31.25
		C100,33.854,99.937,33.073,99.805,32.031z"/>
</g>
</g></g><g transform="translate(455,630) scale(0.35,0.35)"><g transform="" style="fill: rgb(0, 0, 0);">
<g>
	<path d="M100,34.375V0H34.375C24.87,0,16.764,3.353,10.059,10.059S0,24.87,0,34.375V100h100V34.375z"/>
</g>
</g></g><g transform="translate(490,630) scale(0.35,0.35)"><g transform="" style="fill: rgb(0, 0, 0);">
<rect width="100" height="100"/>
</g></g><g transform="translate(525,630) scale(0.35,0.35)"><g transform="" style="fill: rgb(0, 0, 0);">
<rect width="100" height="100"/>
</g></g><g transform="translate(560,630) scale(0.35,0.35)"><g transform="" style="fill: rgb(0, 0, 0);">
<rect width="100" height="100"/>
</g></g><g transform="translate(595,630) scale(0.35,0.35)"><g transform="" style="fill: rgb(0, 0, 0);">
<rect width="100" height="100"/>
</g></g><g transform="translate(630,630) scale(0.35,0.35)"><g transform="" style="fill: rgb(0, 0, 0);">
<rect width="100" height="100"/>
</g></g><g transform="translate(735,630) scale(0.35,0.35)"><g transform="" style="fill: rgb(0, 0, 0);">
<g>
	<path d="M99.805,32.031H100V0H0v32.031h0.195C0.065,33.073,0,33.854,0,34.375v31.25c0,9.505,3.353,17.611,10.059,24.316
		C16.765,96.646,24.87,100,34.375,100h31.25c9.505,0,17.611-3.354,24.316-10.059C96.646,83.236,100,75.13,100,65.625v-31.25
		C100,33.854,99.937,33.073,99.805,32.031z"/>
</g>
</g></g><g transform="translate(840,630) scale(0.35,0.35)"><g transform="" style="fill: rgb(0, 0, 0);">
<g>
	<path d="M100,34.375c0-9.505-3.354-17.611-10.059-24.316C83.236,3.354,75.13,0,65.625,0h-31.25C24.87,0,16.764,3.353,10.059,10.059
		S0,24.87,0,34.375v31.25c0,0.521,0.065,1.303,0.195,2.344H0V100h100V67.969h-0.195c0.132-1.041,0.195-1.822,0.195-2.344V34.375z"/>
</g>
</g></g><g transform="translate(910,630) scale(0.35,0.35)"><g transform="" style="fill: rgb(0, 0, 0);">
<rect width="100" height="100"/>
</g></g><g transform="translate(175,665) scale(0.35,0.35)"><g transform="" style="fill: rgb(0, 0, 0);">
<rect width="100" height="100"/>
</g></g><g transform="translate(245,665) scale(0.35,0.35)"><g transform="" style="fill: rgb(0, 0, 0);">
<g>
	<path d="M100,34.375c0-9.505-3.354-17.611-10.059-24.316C83.236,3.354,75.13,0,65.625,0h-31.25C24.87,0,16.764,3.353,10.059,10.059
		S0,24.87,0,34.375v31.25c0,0.521,0.065,1.303,0.195,2.344H0V100h100V67.969h-0.195c0.132-1.041,0.195-1.822,0.195-2.344V34.375z"/>
</g>
</g></g><g transform="translate(350,665) scale(0.35,0.35)"><g transform="" style="fill: rgb(0, 0, 0);">
<g>
	<path d="M100,34.375V0H34.375C24.87,0,16.764,3.353,10.059,10.059S0,24.87,0,34.375v31.25c0,9.505,3.353,17.611,10.059,24.316
		C16.765,96.646,24.87,100,34.375,100H100V34.375z"/>
</g>
</g></g><g transform="translate(385,665) scale(0.35,0.35)"><g transform="" style="fill: rgb(0, 0, 0);">
<rect width="100" height="100"/>
</g></g><g transform="translate(420,665) scale(0.35,0.35)"><g transform="" style="fill: rgb(0, 0, 0);">
<rect width="100" height="100"/>
</g></g><g transform="translate(455,665) scale(0.35,0.35)"><g transform="" style="fill: rgb(0, 0, 0);">
<rect width="100" height="100"/>
</g></g><g transform="translate(490,665) scale(0.35,0.35)"><g transform="" style="fill: rgb(0, 0, 0);">
<rect width="100" height="100"/>
</g></g><g transform="translate(595,665) scale(0.35,0.35)"><g transform="" style="fill: rgb(0, 0, 0);">
<rect width="100" height="100"/>
</g></g><g transform="translate(630,665) scale(0.35,0.35)"><g transform="" style="fill: rgb(0, 0, 0);">
<rect width="100" height="100"/>
</g></g><g transform="translate(770,665) scale(0.35,0.35)"><g transform="" style="fill: rgb(0, 0, 0);">
<g>
	<path d="M100,34.375c0-9.505-3.354-17.611-10.059-24.316C83.236,3.354,75.13,0,65.625,0h-31.25C24.87,0,16.764,3.353,10.059,10.059
		S0,24.87,0,34.375v31.25c0,0.521,0.065,1.303,0.195,2.344H0V100h100V67.969h-0.195c0.132-1.041,0.195-1.822,0.195-2.344V34.375z"/>
</g>
</g></g><g transform="translate(840,665) scale(0.35,0.35)"><g transform="" style="fill: rgb(0, 0, 0);">
<rect width="100" height="100"/>
</g></g><g transform="translate(910,665) scale(0.35,0.35)"><g transform="" style="fill: rgb(0, 0, 0);">
<rect width="100" height="100"/>
</g></g><g transform="translate(35,700) scale(0.35,0.35)"><g transform="" style="fill: rgb(0, 0, 0);">
<g>
	<path d="M100,65.625c0,9.507-3.355,17.611-10.059,24.316C83.236,96.645,75.132,100,65.625,100h-31.25
		c-9.504,0-17.61-3.355-24.315-10.059C3.354,83.236,0,75.132,0,65.625v-31.25c0-9.504,3.353-17.61,10.059-24.315
		C16.766,3.354,24.871,0,34.375,0h31.25c9.508,0,17.613,3.353,24.316,10.059C96.646,16.766,100,24.871,100,34.375V65.625z"/>
</g>
</g></g><g transform="translate(105,700) scale(0.35,0.35)"><g transform="" style="fill: rgb(0, 0, 0);">
<g>
	<path d="M100,34.375V0H34.375C24.87,0,16.764,3.353,10.059,10.059S0,24.87,0,34.375v31.25c0,9.505,3.353,17.611,10.059,24.316
		C16.765,96.646,24.87,100,34.375,100H100V34.375z"/>
</g>
</g></g><g transform="translate(140,700) scale(0.35,0.35)"><g transform="" style="fill: rgb(0, 0, 0);">
<rect width="100" height="100"/>
</g></g><g transform="translate(175,700) scale(0.35,0.35)"><g transform="" style="fill: rgb(0, 0, 0);">
<rect width="100" height="100"/>
</g></g><g transform="translate(210,700) scale(0.35,0.35)"><g transform="" style="fill: rgb(0, 0, 0);">
<rect width="100" height="100"/>
</g></g><g transform="translate(245,700) scale(0.35,0.35)"><g transform="" style="fill: rgb(0, 0, 0);">
<g>
	<path d="M100,0H0v100h65.625c9.505,0,17.611-3.354,24.316-10.059C96.646,83.236,100,75.13,100,65.625V0z"/>
</g>
</g></g><g transform="translate(315,700) scale(0.35,0.35)"><g transform="" style="fill: rgb(0, 0, 0);">
<g>
	<path d="M100,65.625c0,9.507-3.355,17.611-10.059,24.316C83.236,96.645,75.132,100,65.625,100h-31.25
		c-9.504,0-17.61-3.355-24.315-10.059C3.354,83.236,0,75.132,0,65.625v-31.25c0-9.504,3.353-17.61,10.059-24.315
		C16.766,3.354,24.871,0,34.375,0h31.25c9.508,0,17.613,3.353,24.316,10.059C96.646,16.766,100,24.871,100,34.375V65.625z"/>
</g>
</g></g><g transform="translate(385,700) scale(0.35,0.35)"><g transform="" style="fill: rgb(0, 0, 0);">
<rect width="100" height="100"/>
</g></g><g transform="translate(455,700) scale(0.35,0.35)"><g transform="" style="fill: rgb(0, 0, 0);">
<g>
	<path d="M100,0H0v65.625c0,9.505,3.353,17.611,10.059,24.316C16.765,96.646,24.87,100,34.375,100H100V0z"/>
</g>
</g></g><g transform="translate(490,700) scale(0.35,0.35)"><g transform="" style="fill: rgb(0, 0, 0);">
<g>
	<path d="M100,0H0v100h65.625c9.505,0,17.611-3.354,24.316-10.059C96.646,83.236,100,75.13,100,65.625V0z"/>
</g>
</g></g><g transform="translate(560,700) scale(0.35,0.35)"><g transform="" style="fill: rgb(0, 0, 0);">
<g>
	<path d="M100,34.375V0H34.375C24.87,0,16.764,3.353,10.059,10.059S0,24.87,0,34.375V100h100V34.375z"/>
</g>
</g></g><g transform="translate(595,700) scale(0.35,0.35)"><g transform="" style="fill: rgb(0, 0, 0);">
<rect width="100" height="100"/>
</g></g><g transform="translate(630,700) scale(0.35,0.35)"><g transform="" style="fill: rgb(0, 0, 0);">
<rect width="100" height="100"/>
</g></g><g transform="translate(700,700) scale(0.35,0.35)"><g transform="" style="fill: rgb(0, 0, 0);">
<g>
	<path d="M100,34.375V0H34.375C24.87,0,16.764,3.353,10.059,10.059S0,24.87,0,34.375V100h100V34.375z"/>
</g>
</g></g><g transform="translate(735,700) scale(0.35,0.35)"><g transform="" style="fill: rgb(0, 0, 0);">
<rect width="100" height="100"/>
</g></g><g transform="translate(770,700) scale(0.35,0.35)"><g transform="" style="fill: rgb(0, 0, 0);">
<rect width="100" height="100"/>
</g></g><g transform="translate(805,700) scale(0.35,0.35)"><g transform="" style="fill: rgb(0, 0, 0);">
<rect width="100" height="100"/>
</g></g><g transform="translate(840,700) scale(0.35,0.35)"><g transform="" style="fill: rgb(0, 0, 0);">
<rect width="100" height="100"/>
</g></g><g transform="translate(875,700) scale(0.35,0.35)"><g transform="" style="fill: rgb(0, 0, 0);">
<rect width="100" height="100"/>
</g></g><g transform="translate(910,700) scale(0.35,0.35)"><g transform="" style="fill: rgb(0, 0, 0);">
<rect width="100" height="100"/>
</g></g><g transform="translate(280,735) scale(0.35,0.35)"><g transform="" style="fill: rgb(0, 0, 0);">
<g>
	<path d="M100,34.375c0-9.505-3.354-17.611-10.059-24.316C83.236,3.354,75.13,0,65.625,0h-31.25C24.87,0,16.764,3.353,10.059,10.059
		S0,24.87,0,34.375v31.25c0,0.521,0.065,1.303,0.195,2.344H0V100h100V67.969h-0.195c0.132-1.041,0.195-1.822,0.195-2.344V34.375z"/>
</g>
</g></g><g transform="translate(385,735) scale(0.35,0.35)"><g transform="" style="fill: rgb(0, 0, 0);">
<g>
	<path d="M100,0H0v65.625c0,9.505,3.353,17.611,10.059,24.316C16.765,96.646,24.87,100,34.375,100H100V0z"/>
</g>
</g></g><g transform="translate(420,735) scale(0.35,0.35)"><g transform="" style="fill: rgb(0, 0, 0);">
<g>
	<path d="M65.625,0H0v100h65.625c9.505,0,17.611-3.354,24.316-10.059C96.646,83.236,100,75.13,100,65.625v-31.25
		c0-9.505-3.354-17.611-10.059-24.316C83.236,3.354,75.13,0,65.625,0z"/>
</g>
</g></g><g transform="translate(525,735) scale(0.35,0.35)"><g transform="" style="fill: rgb(0, 0, 0);">
<g>
	<path d="M100,34.375V0H34.375C24.87,0,16.764,3.353,10.059,10.059S0,24.87,0,34.375V100h100V34.375z"/>
</g>
</g></g><g transform="translate(560,735) scale(0.35,0.35)"><g transform="" style="fill: rgb(0, 0, 0);">
<g>
	<path d="M100,0H0v100h65.625c9.505,0,17.611-3.354,24.316-10.059C96.646,83.236,100,75.13,100,65.625V0z"/>
</g>
</g></g><g transform="translate(630,735) scale(0.35,0.35)"><g transform="" style="fill: rgb(0, 0, 0);">
<g>
	<path d="M99.805,32.031H100V0H0v32.031h0.195C0.065,33.073,0,33.854,0,34.375v31.25c0,9.505,3.353,17.611,10.059,24.316
		C16.765,96.646,24.87,100,34.375,100h31.25c9.505,0,17.611-3.354,24.316-10.059C96.646,83.236,100,75.13,100,65.625v-31.25
		C100,33.854,99.937,33.073,99.805,32.031z"/>
</g>
</g></g><g transform="translate(700,735) scale(0.35,0.35)"><g transform="" style="fill: rgb(0, 0, 0);">
<rect width="100" height="100"/>
</g></g><g transform="translate(840,735) scale(0.35,0.35)"><g transform="" style="fill: rgb(0, 0, 0);">
<rect width="100" height="100"/>
</g></g><g transform="translate(875,735) scale(0.35,0.35)"><g transform="" style="fill: rgb(0, 0, 0);">
<rect width="100" height="100"/>
</g></g><g transform="translate(910,735) scale(0.35,0.35)"><g transform="" style="fill: rgb(0, 0, 0);">
<rect width="100" height="100"/>
</g></g><g transform="translate(945,735) scale(0.35,0.35)"><g transform="" style="fill: rgb(0, 0, 0);">
<rect width="100" height="100"/>
</g></g><g transform="translate(980,735) scale(0.35,0.35)"><g transform="" style="fill: rgb(0, 0, 0);">
<g>
	<path d="M65.625,0H0v100h65.625c9.505,0,17.611-3.354,24.316-10.059C96.646,83.236,100,75.13,100,65.625v-31.25
		c0-9.505-3.354-17.611-10.059-24.316C83.236,3.354,75.13,0,65.625,0z"/>
</g>
</g></g><g transform="translate(280,770) scale(0.35,0.35)"><g transform="" style="fill: rgb(0, 0, 0);">
<rect width="100" height="100"/>
</g></g><g transform="translate(315,770) scale(0.35,0.35)"><g transform="" style="fill: rgb(0, 0, 0);">
<g>
	<path d="M100,34.375c0-9.505-3.354-17.611-10.059-24.316C83.236,3.354,75.13,0,65.625,0H0v100h100V34.375z"/>
</g>
</g></g><g transform="translate(490,770) scale(0.35,0.35)"><g transform="" style="fill: rgb(0, 0, 0);">
<g>
	<path d="M100,34.375V0H34.375C24.87,0,16.764,3.353,10.059,10.059S0,24.87,0,34.375V100h100V34.375z"/>
</g>
</g></g><g transform="translate(525,770) scale(0.35,0.35)"><g transform="" style="fill: rgb(0, 0, 0);">
<rect width="100" height="100"/>
</g></g><g transform="translate(665,770) scale(0.35,0.35)"><g transform="" style="fill: rgb(0, 0, 0);">
<g>
	<path d="M100,34.375V0H34.375C24.87,0,16.764,3.353,10.059,10.059S0,24.87,0,34.375v31.25c0,9.505,3.353,17.611,10.059,24.316
		C16.765,96.646,24.87,100,34.375,100H100V34.375z"/>
</g>
</g></g><g transform="translate(700,770) scale(0.35,0.35)"><g transform="" style="fill: rgb(0, 0, 0);">
<rect width="100" height="100"/>
</g></g><g transform="translate(770,770) scale(0.35,0.35)"><g transform="" style="fill: rgb(0, 0, 0);">
<g>
	<path d="M100,65.625c0,9.507-3.355,17.611-10.059,24.316C83.236,96.645,75.132,100,65.625,100h-31.25
		c-9.504,0-17.61-3.355-24.315-10.059C3.354,83.236,0,75.132,0,65.625v-31.25c0-9.504,3.353-17.61,10.059-24.315
		C16.766,3.354,24.871,0,34.375,0h31.25c9.508,0,17.613,3.353,24.316,10.059C96.646,16.766,100,24.871,100,34.375V65.625z"/>
</g>
</g></g><g transform="translate(840,770) scale(0.35,0.35)"><g transform="" style="fill: rgb(0, 0, 0);">
<rect width="100" height="100"/>
</g></g><g transform="translate(875,770) scale(0.35,0.35)"><g transform="" style="fill: rgb(0, 0, 0);">
<rect width="100" height="100"/>
</g></g><g transform="translate(945,770) scale(0.35,0.35)"><g transform="" style="fill: rgb(0, 0, 0);">
<g>
	<path d="M99.805,32.031H100V0H0v32.031h0.195C0.065,33.073,0,33.854,0,34.375v31.25c0,9.505,3.353,17.611,10.059,24.316
		C16.765,96.646,24.87,100,34.375,100h31.25c9.505,0,17.611-3.354,24.316-10.059C96.646,83.236,100,75.13,100,65.625v-31.25
		C100,33.854,99.937,33.073,99.805,32.031z"/>
</g>
</g></g><g transform="translate(280,805) scale(0.35,0.35)"><g transform="" style="fill: rgb(0, 0, 0);">
<g>
	<path d="M100,0H0v65.625c0,9.505,3.353,17.611,10.059,24.316C16.765,96.646,24.87,100,34.375,100H100V0z"/>
</g>
</g></g><g transform="translate(315,805) scale(0.35,0.35)"><g transform="" style="fill: rgb(0, 0, 0);">
<rect width="100" height="100"/>
</g></g><g transform="translate(350,805) scale(0.35,0.35)"><g transform="" style="fill: rgb(0, 0, 0);">
<g>
	<path d="M65.625,0H0v100h65.625c9.505,0,17.611-3.354,24.316-10.059C96.646,83.236,100,75.13,100,65.625v-31.25
		c0-9.505-3.354-17.611-10.059-24.316C83.236,3.354,75.13,0,65.625,0z"/>
</g>
</g></g><g transform="translate(455,805) scale(0.35,0.35)"><g transform="" style="fill: rgb(0, 0, 0);">
<g>
	<path d="M100,34.375V0H34.375C24.87,0,16.764,3.353,10.059,10.059S0,24.87,0,34.375v31.25c0,9.505,3.353,17.611,10.059,24.316
		C16.765,96.646,24.87,100,34.375,100H100V34.375z"/>
</g>
</g></g><g transform="translate(490,805) scale(0.35,0.35)"><g transform="" style="fill: rgb(0, 0, 0);">
<rect width="100" height="100"/>
</g></g><g transform="translate(525,805) scale(0.35,0.35)"><g transform="" style="fill: rgb(0, 0, 0);">
<g>
	<path d="M100,0H0v100h65.625c9.505,0,17.611-3.354,24.316-10.059C96.646,83.236,100,75.13,100,65.625V0z"/>
</g>
</g></g><g transform="translate(630,805) scale(0.35,0.35)"><g transform="" style="fill: rgb(0, 0, 0);">
<g>
	<path d="M100,65.625c0,9.507-3.355,17.611-10.059,24.316C83.236,96.645,75.132,100,65.625,100h-31.25
		c-9.504,0-17.61-3.355-24.315-10.059C3.354,83.236,0,75.132,0,65.625v-31.25c0-9.504,3.353-17.61,10.059-24.315
		C16.766,3.354,24.871,0,34.375,0h31.25c9.508,0,17.613,3.353,24.316,10.059C96.646,16.766,100,24.871,100,34.375V65.625z"/>
</g>
</g></g><g transform="translate(700,805) scale(0.35,0.35)"><g transform="" style="fill: rgb(0, 0, 0);">
<rect width="100" height="100"/>
</g></g><g transform="translate(840,805) scale(0.35,0.35)"><g transform="" style="fill: rgb(0, 0, 0);">
<rect width="100" height="100"/>
</g></g><g transform="translate(875,805) scale(0.35,0.35)"><g transform="" style="fill: rgb(0, 0, 0);">
<g>
	<path d="M100,0H0v100h65.625c9.505,0,17.611-3.354,24.316-10.059C96.646,83.236,100,75.13,100,65.625V0z"/>
</g>
</g></g><g transform="translate(385,840) scale(0.35,0.35)"><g transform="" style="fill: rgb(0, 0, 0);">
<g>
	<path d="M100,34.375V0H34.375C24.87,0,16.764,3.353,10.059,10.059S0,24.87,0,34.375v31.25c0,9.505,3.353,17.611,10.059,24.316
		C16.765,96.646,24.87,100,34.375,100H100V34.375z"/>
</g>
</g></g><g transform="translate(420,840) scale(0.35,0.35)"><g transform="" style="fill: rgb(0, 0, 0);">
<g>
	<path d="M100,34.375c0-9.505-3.354-17.611-10.059-24.316C83.236,3.354,75.13,0,65.625,0H0v100h100V34.375z"/>
</g>
</g></g><g transform="translate(595,840) scale(0.35,0.35)"><g transform="" style="fill: rgb(0, 0, 0);">
<g>
	<path d="M100,34.375c0-9.505-3.354-17.611-10.059-24.316C83.236,3.354,75.13,0,65.625,0h-31.25C24.87,0,16.764,3.353,10.059,10.059
		S0,24.87,0,34.375v31.25c0,0.521,0.065,1.303,0.195,2.344H0V100h100V67.969h-0.195c0.132-1.041,0.195-1.822,0.195-2.344V34.375z"/>
</g>
</g></g><g transform="translate(700,840) scale(0.35,0.35)"><g transform="" style="fill: rgb(0, 0, 0);">
<rect width="100" height="100"/>
</g></g><g transform="translate(735,840) scale(0.35,0.35)"><g transform="" style="fill: rgb(0, 0, 0);">
<rect width="100" height="100"/>
</g></g><g transform="translate(770,840) scale(0.35,0.35)"><g transform="" style="fill: rgb(0, 0, 0);">
<rect width="100" height="100"/>
</g></g><g transform="translate(805,840) scale(0.35,0.35)"><g transform="" style="fill: rgb(0, 0, 0);">
<rect width="100" height="100"/>
</g></g><g transform="translate(840,840) scale(0.35,0.35)"><g transform="" style="fill: rgb(0, 0, 0);">
<rect width="100" height="100"/>
</g></g><g transform="translate(910,840) scale(0.35,0.35)"><g transform="" style="fill: rgb(0, 0, 0);">
<g>
	<path d="M100,65.625c0,9.507-3.355,17.611-10.059,24.316C83.236,96.645,75.132,100,65.625,100h-31.25
		c-9.504,0-17.61-3.355-24.315-10.059C3.354,83.236,0,75.132,0,65.625v-31.25c0-9.504,3.353-17.61,10.059-24.315
		C16.766,3.354,24.871,0,34.375,0h31.25c9.508,0,17.613,3.353,24.316,10.059C96.646,16.766,100,24.871,100,34.375V65.625z"/>
</g>
</g></g><g transform="translate(980,840) scale(0.35,0.35)"><g transform="" style="fill: rgb(0, 0, 0);">
<g>
	<path d="M100,65.625c0,9.507-3.355,17.611-10.059,24.316C83.236,96.645,75.132,100,65.625,100h-31.25
		c-9.504,0-17.61-3.355-24.315-10.059C3.354,83.236,0,75.132,0,65.625v-31.25c0-9.504,3.353-17.61,10.059-24.315
		C16.766,3.354,24.871,0,34.375,0h31.25c9.508,0,17.613,3.353,24.316,10.059C96.646,16.766,100,24.871,100,34.375V65.625z"/>
</g>
</g></g><g transform="translate(280,875) scale(0.35,0.35)"><g transform="" style="fill: rgb(0, 0, 0);">
<g>
	<path d="M100,34.375c0-9.505-3.354-17.611-10.059-24.316C83.236,3.354,75.13,0,65.625,0h-31.25C24.87,0,16.764,3.353,10.059,10.059
		S0,24.87,0,34.375v31.25c0,0.521,0.065,1.303,0.195,2.344H0V100h100V67.969h-0.195c0.132-1.041,0.195-1.822,0.195-2.344V34.375z"/>
</g>
</g></g><g transform="translate(420,875) scale(0.35,0.35)"><g transform="" style="fill: rgb(0, 0, 0);">
<g>
	<path d="M99.805,32.031H100V0H0v32.031h0.195C0.065,33.073,0,33.854,0,34.375v31.25c0,9.505,3.353,17.611,10.059,24.316
		C16.765,96.646,24.87,100,34.375,100h31.25c9.505,0,17.611-3.354,24.316-10.059C96.646,83.236,100,75.13,100,65.625v-31.25
		C100,33.854,99.937,33.073,99.805,32.031z"/>
</g>
</g></g><g transform="translate(595,875) scale(0.35,0.35)"><g transform="" style="fill: rgb(0, 0, 0);">
<g>
	<path d="M99.805,32.031H100V0H0v32.031h0.195C0.065,33.073,0,33.854,0,34.375v31.25c0,9.505,3.353,17.611,10.059,24.316
		C16.765,96.646,24.87,100,34.375,100h31.25c9.505,0,17.611-3.354,24.316-10.059C96.646,83.236,100,75.13,100,65.625v-31.25
		C100,33.854,99.937,33.073,99.805,32.031z"/>
</g>
</g></g><g transform="translate(665,875) scale(0.35,0.35)"><g transform="" style="fill: rgb(0, 0, 0);">
<g>
	<path d="M100,34.375V0H34.375C24.87,0,16.764,3.353,10.059,10.059S0,24.87,0,34.375v31.25c0,9.505,3.353,17.611,10.059,24.316
		C16.765,96.646,24.87,100,34.375,100H100V34.375z"/>
</g>
</g></g><g transform="translate(700,875) scale(0.35,0.35)"><g transform="" style="fill: rgb(0, 0, 0);">
<rect width="100" height="100"/>
</g></g><g transform="translate(735,875) scale(0.35,0.35)"><g transform="" style="fill: rgb(0, 0, 0);">
<g>
	<path d="M100,0H0v100h65.625c9.505,0,17.611-3.354,24.316-10.059C96.646,83.236,100,75.13,100,65.625V0z"/>
</g>
</g></g><g transform="translate(805,875) scale(0.35,0.35)"><g transform="" style="fill: rgb(0, 0, 0);">
<rect width="100" height="100"/>
</g></g><g transform="translate(840,875) scale(0.35,0.35)"><g transform="" style="fill: rgb(0, 0, 0);">
<rect width="100" height="100"/>
</g></g><g transform="translate(875,875) scale(0.35,0.35)"><g transform="" style="fill: rgb(0, 0, 0);">
<g>
	<path d="M65.625,0H0v100h65.625c9.505,0,17.611-3.354,24.316-10.059C96.646,83.236,100,75.13,100,65.625v-31.25
		c0-9.505-3.354-17.611-10.059-24.316C83.236,3.354,75.13,0,65.625,0z"/>
</g>
</g></g><g transform="translate(945,875) scale(0.35,0.35)"><g transform="" style="fill: rgb(0, 0, 0);">
<g>
	<path d="M100,65.625c0,9.507-3.355,17.611-10.059,24.316C83.236,96.645,75.132,100,65.625,100h-31.25
		c-9.504,0-17.61-3.355-24.315-10.059C3.354,83.236,0,75.132,0,65.625v-31.25c0-9.504,3.353-17.61,10.059-24.315
		C16.766,3.354,24.871,0,34.375,0h31.25c9.508,0,17.613,3.353,24.316,10.059C96.646,16.766,100,24.871,100,34.375V65.625z"/>
</g>
</g></g><g transform="translate(280,910) scale(0.35,0.35)"><g transform="" style="fill: rgb(0, 0, 0);">
<g>
	<path d="M100,0H0v65.625c0,9.505,3.353,17.611,10.059,24.316C16.765,96.646,24.87,100,34.375,100H100V0z"/>
</g>
</g></g><g transform="translate(315,910) scale(0.35,0.35)"><g transform="" style="fill: rgb(0, 0, 0);">
<g>
	<path d="M100,34.375c0-9.505-3.354-17.611-10.059-24.316C83.236,3.354,75.13,0,65.625,0H0v100h100V34.375z"/>
</g>
</g></g><g transform="translate(385,910) scale(0.35,0.35)"><g transform="" style="fill: rgb(0, 0, 0);">
<g>
	<path d="M100,34.375c0-9.505-3.354-17.611-10.059-24.316C83.236,3.354,75.13,0,65.625,0h-31.25C24.87,0,16.764,3.353,10.059,10.059
		S0,24.87,0,34.375v31.25c0,0.521,0.065,1.303,0.195,2.344H0V100h100V67.969h-0.195c0.132-1.041,0.195-1.822,0.195-2.344V34.375z"/>
</g>
</g></g><g transform="translate(560,910) scale(0.35,0.35)"><g transform="" style="fill: rgb(0, 0, 0);">
<g>
	<path d="M100,34.375c0-9.505-3.354-17.611-10.059-24.316C83.236,3.354,75.13,0,65.625,0h-31.25C24.87,0,16.764,3.353,10.059,10.059
		S0,24.87,0,34.375v31.25c0,0.521,0.065,1.303,0.195,2.344H0V100h100V67.969h-0.195c0.132-1.041,0.195-1.822,0.195-2.344V34.375z"/>
</g>
</g></g><g transform="translate(805,910) scale(0.35,0.35)"><g transform="" style="fill: rgb(0, 0, 0);">
<g>
	<path d="M99.805,32.031H100V0H0v32.031h0.195C0.065,33.073,0,33.854,0,34.375v31.25c0,9.505,3.353,17.611,10.059,24.316
		C16.765,96.646,24.87,100,34.375,100h31.25c9.505,0,17.611-3.354,24.316-10.059C96.646,83.236,100,75.13,100,65.625v-31.25
		C100,33.854,99.937,33.073,99.805,32.031z"/>
</g>
</g></g><g transform="translate(910,910) scale(0.35,0.35)"><g transform="" style="fill: rgb(0, 0, 0);">
<g>
	<path d="M100,65.625c0,9.507-3.355,17.611-10.059,24.316C83.236,96.645,75.132,100,65.625,100h-31.25
		c-9.504,0-17.61-3.355-24.315-10.059C3.354,83.236,0,75.132,0,65.625v-31.25c0-9.504,3.353-17.61,10.059-24.315
		C16.766,3.354,24.871,0,34.375,0h31.25c9.508,0,17.613,3.353,24.316,10.059C96.646,16.766,100,24.871,100,34.375V65.625z"/>
</g>
</g></g><g transform="translate(980,910) scale(0.35,0.35)"><g transform="" style="fill: rgb(0, 0, 0);">
<g>
	<path d="M100,65.625c0,9.507-3.355,17.611-10.059,24.316C83.236,96.645,75.132,100,65.625,100h-31.25
		c-9.504,0-17.61-3.355-24.315-10.059C3.354,83.236,0,75.132,0,65.625v-31.25c0-9.504,3.353-17.61,10.059-24.315
		C16.766,3.354,24.871,0,34.375,0h31.25c9.508,0,17.613,3.353,24.316,10.059C96.646,16.766,100,24.871,100,34.375V65.625z"/>
</g>
</g></g><g transform="translate(315,945) scale(0.35,0.35)"><g transform="" style="fill: rgb(0, 0, 0);">
<g>
	<path d="M99.805,32.031H100V0H0v32.031h0.195C0.065,33.073,0,33.854,0,34.375v31.25c0,9.505,3.353,17.611,10.059,24.316
		C16.765,96.646,24.87,100,34.375,100h31.25c9.505,0,17.611-3.354,24.316-10.059C96.646,83.236,100,75.13,100,65.625v-31.25
		C100,33.854,99.937,33.073,99.805,32.031z"/>
</g>
</g></g><g transform="translate(385,945) scale(0.35,0.35)"><g transform="" style="fill: rgb(0, 0, 0);">
<rect width="100" height="100"/>
</g></g><g transform="translate(560,945) scale(0.35,0.35)"><g transform="" style="fill: rgb(0, 0, 0);">
<g>
	<path d="M99.805,32.031H100V0H0v32.031h0.195C0.065,33.073,0,33.854,0,34.375v31.25c0,9.505,3.353,17.611,10.059,24.316
		C16.765,96.646,24.87,100,34.375,100h31.25c9.505,0,17.611-3.354,24.316-10.059C96.646,83.236,100,75.13,100,65.625v-31.25
		C100,33.854,99.937,33.073,99.805,32.031z"/>
</g>
</g></g><g transform="translate(700,945) scale(0.35,0.35)"><g transform="" style="fill: rgb(0, 0, 0);">
<g>
	<path d="M100,34.375V0H34.375C24.87,0,16.764,3.353,10.059,10.059S0,24.87,0,34.375V100h100V34.375z"/>
</g>
</g></g><g transform="translate(735,945) scale(0.35,0.35)"><g transform="" style="fill: rgb(0, 0, 0);">
<g>
	<path d="M65.625,0H0v100h65.625c9.505,0,17.611-3.354,24.316-10.059C96.646,83.236,100,75.13,100,65.625v-31.25
		c0-9.505-3.354-17.611-10.059-24.316C83.236,3.354,75.13,0,65.625,0z"/>
</g>
</g></g><g transform="translate(875,945) scale(0.35,0.35)"><g transform="" style="fill: rgb(0, 0, 0);">
<g>
	<path d="M100,65.625c0,9.507-3.355,17.611-10.059,24.316C83.236,96.645,75.132,100,65.625,100h-31.25
		c-9.504,0-17.61-3.355-24.315-10.059C3.354,83.236,0,75.132,0,65.625v-31.25c0-9.504,3.353-17.61,10.059-24.315
		C16.766,3.354,24.871,0,34.375,0h31.25c9.508,0,17.613,3.353,24.316,10.059C96.646,16.766,100,24.871,100,34.375V65.625z"/>
</g>
</g></g><g transform="translate(945,945) scale(0.35,0.35)"><g transform="" style="fill: rgb(0, 0, 0);">
<g>
	<path d="M100,34.375c0-9.505-3.354-17.611-10.059-24.316C83.236,3.354,75.13,0,65.625,0h-31.25C24.87,0,16.764,3.353,10.059,10.059
		S0,24.87,0,34.375v31.25c0,0.521,0.065,1.303,0.195,2.344H0V100h100V67.969h-0.195c0.132-1.041,0.195-1.822,0.195-2.344V34.375z"/>
</g>
</g></g><g transform="translate(280,980) scale(0.35,0.35)"><g transform="" style="fill: rgb(0, 0, 0);">
<g>
	<path d="M100,65.625c0,9.507-3.355,17.611-10.059,24.316C83.236,96.645,75.132,100,65.625,100h-31.25
		c-9.504,0-17.61-3.355-24.315-10.059C3.354,83.236,0,75.132,0,65.625v-31.25c0-9.504,3.353-17.61,10.059-24.315
		C16.766,3.354,24.871,0,34.375,0h31.25c9.508,0,17.613,3.353,24.316,10.059C96.646,16.766,100,24.871,100,34.375V65.625z"/>
</g>
</g></g><g transform="translate(350,980) scale(0.35,0.35)"><g transform="" style="fill: rgb(0, 0, 0);">
<g>
	<path d="M100,34.375V0H34.375C24.87,0,16.764,3.353,10.059,10.059S0,24.87,0,34.375v31.25c0,9.505,3.353,17.611,10.059,24.316
		C16.765,96.646,24.87,100,34.375,100H100V34.375z"/>
</g>
</g></g><g transform="translate(385,980) scale(0.35,0.35)"><g transform="" style="fill: rgb(0, 0, 0);">
<rect width="100" height="100"/>
</g></g><g transform="translate(420,980) scale(0.35,0.35)"><g transform="" style="fill: rgb(0, 0, 0);">
<g>
	<path d="M65.625,0H0v100h65.625c9.505,0,17.611-3.354,24.316-10.059C96.646,83.236,100,75.13,100,65.625v-31.25
		c0-9.505-3.354-17.611-10.059-24.316C83.236,3.354,75.13,0,65.625,0z"/>
</g>
</g></g><g transform="translate(490,980) scale(0.35,0.35)"><g transform="" style="fill: rgb(0, 0, 0);">
<g>
	<path d="M100,34.375V0H34.375C24.87,0,16.764,3.353,10.059,10.059S0,24.87,0,34.375v31.25c0,9.505,3.353,17.611,10.059,24.316
		C16.765,96.646,24.87,100,34.375,100H100V34.375z"/>
</g>
</g></g><g transform="translate(525,980) scale(0.35,0.35)"><g transform="" style="fill: rgb(0, 0, 0);">
<g>
	<path d="M65.625,0H0v100h65.625c9.505,0,17.611-3.354,24.316-10.059C96.646,83.236,100,75.13,100,65.625v-31.25
		c0-9.505-3.354-17.611-10.059-24.316C83.236,3.354,75.13,0,65.625,0z"/>
</g>
</g></g><g transform="translate(630,980) scale(0.35,0.35)"><g transform="" style="fill: rgb(0, 0, 0);">
<g>
	<path d="M100,34.375V0H34.375C24.87,0,16.764,3.353,10.059,10.059S0,24.87,0,34.375v31.25c0,9.505,3.353,17.611,10.059,24.316
		C16.765,96.646,24.87,100,34.375,100H100V34.375z"/>
</g>
</g></g><g transform="translate(665,980) scale(0.35,0.35)"><g transform="" style="fill: rgb(0, 0, 0);">
<rect width="100" height="100"/>
</g></g><g transform="translate(700,980) scale(0.35,0.35)"><g transform="" style="fill: rgb(0, 0, 0);">
<g>
	<path d="M100,0H0v100h65.625c9.505,0,17.611-3.354,24.316-10.059C96.646,83.236,100,75.13,100,65.625V0z"/>
</g>
</g></g><g transform="translate(770,980) scale(0.35,0.35)"><g transform="" style="fill: rgb(0, 0, 0);">
<g>
	<path d="M100,65.625c0,9.507-3.355,17.611-10.059,24.316C83.236,96.645,75.132,100,65.625,100h-31.25
		c-9.504,0-17.61-3.355-24.315-10.059C3.354,83.236,0,75.132,0,65.625v-31.25c0-9.504,3.353-17.61,10.059-24.315
		C16.766,3.354,24.871,0,34.375,0h31.25c9.508,0,17.613,3.353,24.316,10.059C96.646,16.766,100,24.871,100,34.375V65.625z"/>
</g>
</g></g><g transform="translate(945,980) scale(0.35,0.35)"><g transform="" style="fill: rgb(0, 0, 0);">
<g>
	<path d="M99.805,32.031H100V0H0v32.031h0.195C0.065,33.073,0,33.854,0,34.375v31.25c0,9.505,3.353,17.611,10.059,24.316
		C16.765,96.646,24.87,100,34.375,100h31.25c9.505,0,17.611-3.354,24.316-10.059C96.646,83.236,100,75.13,100,65.625v-31.25
		C100,33.854,99.937,33.073,99.805,32.031z"/>
</g>
</g></g><g transform="translate(0,0) scale(2.45, 2.45)"><g transform=" translate(100, 0) scale(-1,1) " style="fill: rgb(0, 0, 0);">
<g>
	<path style="fill:none;" d="M85,66.221V33.75C85,23.411,76.414,15,65.859,15H34.14C23.586,15,15,23.411,15,33.75v51.246
		l50.855-0.016C76.414,84.98,85,76.564,85,66.221z"/>
	<path d="M100,66.221V33.75C100,15.141,84.68,0,65.859,0H34.14C15.32,0,0,15.141,0,33.75V100l65.859-0.02
		C84.68,99.98,100,84.84,100,66.221z M85,66.221c0,10.344-8.586,18.76-19.145,18.76L15,84.996V33.75C15,23.411,23.586,15,34.14,15
		h31.719C76.414,15,85,23.411,85,33.75V66.221z"/>
</g>
</g></g><g transform="translate(770,0) scale(2.45, 2.45)"><g transform="" style="fill: rgb(0, 0, 0);">
<g>
	<path style="fill:none;" d="M85,66.221V33.75C85,23.411,76.414,15,65.859,15H34.14C23.586,15,15,23.411,15,33.75v51.246
		l50.855-0.016C76.414,84.98,85,76.564,85,66.221z"/>
	<path d="M100,66.221V33.75C100,15.141,84.68,0,65.859,0H34.14C15.32,0,0,15.141,0,33.75V100l65.859-0.02
		C84.68,99.98,100,84.84,100,66.221z M85,66.221c0,10.344-8.586,18.76-19.145,18.76L15,84.996V33.75C15,23.411,23.586,15,34.14,15
		h31.719C76.414,15,85,23.411,85,33.75V66.221z"/>
</g>
</g></g><g transform="translate(0,770) scale(2.45, 2.45)"><g transform=" translate(100, 0) scale(-1,1)  translate(0,100) scale(1,-1) " style="fill: rgb(0, 0, 0);">
<g>
	<path style="fill:none;" d="M85,66.221V33.75C85,23.411,76.414,15,65.859,15H34.14C23.586,15,15,23.411,15,33.75v51.246
		l50.855-0.016C76.414,84.98,85,76.564,85,66.221z"/>
	<path d="M100,66.221V33.75C100,15.141,84.68,0,65.859,0H34.14C15.32,0,0,15.141,0,33.75V100l65.859-0.02
		C84.68,99.98,100,84.84,100,66.221z M85,66.221c0,10.344-8.586,18.76-19.145,18.76L15,84.996V33.75C15,23.411,23.586,15,34.14,15
		h31.719C76.414,15,85,23.411,85,33.75V66.221z"/>
</g>
</g></g><g transform="translate(70,70) scale(1.05, 1.05)"><g transform=" translate(100, 0) scale(-1,1) " style="fill: rgb(0, 0, 0);">
<path d="M100,72.779V27.195C100,12.203,87.604,0,72.37,0H27.63C12.397,0,0,12.203,0,27.195V100l72.37-0.042
	C87.604,99.958,100,87.771,100,72.779z"/>
</g></g><g transform="translate(840,70) scale(1.05, 1.05)"><g transform="" style="fill: rgb(0, 0, 0);">
<path d="M100,72.779V27.195C100,12.203,87.604,0,72.37,0H27.63C12.397,0,0,12.203,0,27.195V100l72.37-0.042
	C87.604,99.958,100,87.771,100,72.779z"/>
</g></g><g transform="translate(70,840) scale(1.05, 1.05)"><g transform=" translate(100, 0) scale(-1,1)  translate(0,100) scale(1,-1) " style="fill: rgb(0, 0, 0);">
<path d="M100,72.779V27.195C100,12.203,87.604,0,72.37,0H27.63C12.397,0,0,12.203,0,27.195V100l72.37-0.042
	C87.604,99.958,100,87.771,100,72.779z"/>
</g></g></g></svg>